M48
; DRILL file {KiCad 9.0.2-9-g92f6307ebb} date 2025-06-20T01:42:08+0800
; FORMAT={-:-/ absolute / inch / decimal}
; #@! TF.CreationDate,2025-06-20T01:42:08+08:00
; #@! TF.GenerationSoftware,Kicad,Pcbnew,9.0.2-9-g92f6307ebb
; #@! TF.FileFunction,Plated,1,4,PTH
FMAT,2
INCH
; #@! TA.AperFunction,Plated,PTH,ViaDrill
T1C0.0118
; #@! TA.AperFunction,Plated,PTH,ViaDrill
T2C0.0157
; #@! TA.AperFunction,Plated,PTH,ComponentDrill
T3C0.0315
; #@! TA.AperFunction,Plated,PTH,ComponentDrill
T4C0.0350
; #@! TA.AperFunction,Plated,PTH,ComponentDrill
T5C0.0354
; #@! TA.AperFunction,Plated,PTH,ComponentDrill
T6C0.0362
; #@! TA.AperFunction,Plated,PTH,ComponentDrill
T7C0.0394
; #@! TA.AperFunction,Plated,PTH,ComponentDrill
T8C0.0402
; #@! TA.AperFunction,Plated,PTH,ComponentDrill
T9C0.0591
; #@! TA.AperFunction,Plated,PTH,ComponentDrill
T10C0.0642
; #@! TA.AperFunction,Plated,PTH,ComponentDrill
T11C0.0669
; #@! TA.AperFunction,Plated,PTH,ComponentDrill
T12C0.0917
; #@! TA.AperFunction,Plated,PTH,ComponentDrill
T13C0.1772
%
G90
G05
T1
X3.0039Y-4.1941
X3.0039Y-4.2531
X3.0433Y-4.1941
X3.0433Y-4.2531
X3.126Y-4.1941
X3.126Y-4.2335
X3.1437Y-4.1744
X3.1437Y-4.2138
X3.2973Y-6.767
X3.3244Y-6.767
X3.6744Y-3.4588
X3.7402Y-3.6339
X3.7677Y-4.0709
X3.8327Y-2.8661
X3.8622Y-3.9429
X3.8642Y-3.9193
X3.8671Y-3.8868
X3.878Y-3.8681
X3.8839Y-3.3858
X3.8839Y-3.4094
X3.8898Y-4.1181
X3.8937Y-3.8524
X3.9173Y-3.8504
X3.9173Y-3.8976
X3.9173Y-4.3386
X3.9213Y-3.4272
X3.9429Y-3.6791
X3.9528Y-3.4272
X3.9626Y-3.6299
X3.9646Y-3.6791
X3.9685Y-3.6043
X3.9803Y-3.9606
X3.9803Y-3.9921
X3.9803Y-4.0236
X3.9803Y-4.0551
X3.9803Y-4.0866
X3.9803Y-4.1496
X3.9803Y-4.1811
X3.9803Y-4.2126
X3.9803Y-4.2441
X3.9803Y-4.2756
X4.0118Y-3.9606
X4.0118Y-3.9921
X4.0118Y-4.0236
X4.0118Y-4.0551
X4.0118Y-4.0866
X4.0118Y-4.1496
X4.0118Y-4.1811
X4.0118Y-4.2126
X4.0118Y-4.2441
X4.0118Y-4.2756
X4.0433Y-3.9606
X4.0433Y-3.9921
X4.0433Y-4.0236
X4.0433Y-4.0551
X4.0433Y-4.0866
X4.0433Y-4.1496
X4.0433Y-4.1811
X4.0433Y-4.2126
X4.0433Y-4.2441
X4.0433Y-4.2756
X4.0748Y-3.9606
X4.0748Y-3.9921
X4.0748Y-4.0236
X4.0748Y-4.0551
X4.0748Y-4.0866
X4.0748Y-4.1496
X4.0748Y-4.1811
X4.0748Y-4.2126
X4.0748Y-4.2441
X4.0748Y-4.2756
X4.1063Y-3.9606
X4.1063Y-3.9921
X4.1063Y-4.0551
X4.1063Y-4.1811
X4.1063Y-4.2126
X4.1063Y-4.2441
X4.1063Y-4.2756
X4.1378Y-4.1181
X4.1693Y-3.9606
X4.1693Y-3.9921
X4.1693Y-4.0551
X4.1693Y-4.1496
X4.1693Y-4.1811
X4.1693Y-4.2126
X4.1693Y-4.2441
X4.1693Y-4.2756
X4.2008Y-3.9606
X4.2008Y-3.9921
X4.2008Y-4.0236
X4.2008Y-4.0551
X4.2008Y-4.0866
X4.2008Y-4.1496
X4.2008Y-4.1811
X4.2008Y-4.2126
X4.2008Y-4.2441
X4.2008Y-4.2756
X4.2323Y-3.9606
X4.2323Y-3.9921
X4.2323Y-4.0236
X4.2323Y-4.0551
X4.2323Y-4.0866
X4.2323Y-4.1496
X4.2323Y-4.1811
X4.2323Y-4.2126
X4.2323Y-4.2441
X4.2323Y-4.2756
X4.2638Y-3.9606
X4.2638Y-3.9921
X4.2638Y-4.0236
X4.2638Y-4.0551
X4.2638Y-4.0866
X4.2638Y-4.1496
X4.2638Y-4.1811
X4.2638Y-4.2126
X4.2638Y-4.2441
X4.2638Y-4.2756
X4.2953Y-3.9606
X4.2953Y-3.9921
X4.2953Y-4.0236
X4.2953Y-4.0551
X4.2953Y-4.0866
X4.2953Y-4.1496
X4.2953Y-4.1811
X4.2953Y-4.2126
X4.2953Y-4.2441
X4.2953Y-4.2756
X4.3268Y-4.2441
X4.3583Y-3.8976
X4.3583Y-4.2441
X4.382Y-4.2441
X4.4588Y-3.5768
X4.4665Y-3.5138
X4.4803Y-3.5709
X4.4843Y-3.6004
X4.5098Y-3.9154
X4.5571Y-3.7028
X4.5571Y-3.7795
X4.5581Y-3.7992
X4.5581Y-3.8602
X4.6031Y-3.8275
X4.6082Y-3.7087
X4.6319Y-3.6634
X4.6496Y-3.374
X4.7007Y-3.5965
X4.7146Y-3.6201
X4.7402Y-3.6024
X4.7559Y-3.4724
X4.8799Y-6.7103
X4.9071Y-6.7103
X5.0723Y-4.3397
X5.0723Y-4.3791
X5.0901Y-4.32
X5.0901Y-4.3594
X5.1727Y-4.3003
X5.1727Y-4.3594
X5.2121Y-4.3003
X5.2121Y-4.3594
T2
X2.4931Y-4.882
X2.4931Y-4.912
X2.4931Y-4.942
X2.4931Y-4.972
X2.4931Y-5.002
X2.4931Y-5.4725
X2.4931Y-5.5025
X2.4931Y-5.5325
X2.4931Y-5.5625
X2.4931Y-5.5925
X2.4931Y-6.0631
X2.4931Y-6.0931
X2.4931Y-6.1231
X2.4931Y-6.1531
X2.4931Y-6.1831
X2.5527Y-5.1152
X2.5527Y-5.1452
X2.5527Y-5.1752
X2.5527Y-5.2052
X2.5527Y-5.2352
X2.5527Y-5.2652
X2.5527Y-5.7058
X2.5527Y-5.7358
X2.5527Y-5.7658
X2.5527Y-5.7958
X2.5527Y-5.8258
X2.5527Y-5.8558
X2.5527Y-6.2963
X2.5527Y-6.3263
X2.5527Y-6.3563
X2.5527Y-6.3863
X2.5527Y-6.4163
X2.5527Y-6.4463
X2.5827Y-5.1152
X2.5827Y-5.1452
X2.5827Y-5.1752
X2.5827Y-5.2052
X2.5827Y-5.2352
X2.5827Y-5.2652
X2.5827Y-5.7058
X2.5827Y-5.7358
X2.5827Y-5.7658
X2.5827Y-5.7958
X2.5827Y-5.8258
X2.5827Y-5.8558
X2.5827Y-6.2963
X2.5827Y-6.3263
X2.5827Y-6.3563
X2.5827Y-6.3863
X2.5827Y-6.4163
X2.5827Y-6.4463
X2.6127Y-5.1152
X2.6127Y-5.1452
X2.6127Y-5.1752
X2.6127Y-5.2052
X2.6127Y-5.2352
X2.6127Y-5.2652
X2.6127Y-5.7058
X2.6127Y-5.7358
X2.6127Y-5.7658
X2.6127Y-5.7958
X2.6127Y-5.8258
X2.6127Y-5.8558
X2.6127Y-6.2963
X2.6127Y-6.3263
X2.6127Y-6.3563
X2.6127Y-6.3863
X2.6127Y-6.4163
X2.6127Y-6.4463
X2.6427Y-5.1152
X2.6427Y-5.1452
X2.6427Y-5.1752
X2.6427Y-5.2052
X2.6427Y-5.2352
X2.6427Y-5.2652
X2.6427Y-5.7058
X2.6427Y-5.7358
X2.6427Y-5.7658
X2.6427Y-5.7958
X2.6427Y-5.8258
X2.6427Y-5.8558
X2.6427Y-6.2963
X2.6427Y-6.3263
X2.6427Y-6.3563
X2.6427Y-6.3863
X2.6427Y-6.4163
X2.6427Y-6.4463
X2.6727Y-5.1152
X2.6727Y-5.1452
X2.6727Y-5.1752
X2.6727Y-5.2052
X2.6727Y-5.2352
X2.6727Y-5.2652
X2.6727Y-5.7058
X2.6727Y-5.7358
X2.6727Y-5.7658
X2.6727Y-5.7958
X2.6727Y-5.8258
X2.6727Y-5.8558
X2.6727Y-6.2963
X2.6727Y-6.3263
X2.6727Y-6.3563
X2.6727Y-6.3863
X2.6727Y-6.4163
X2.6727Y-6.4463
X2.7027Y-5.1152
X2.7027Y-5.1452
X2.7027Y-5.1752
X2.7027Y-5.2052
X2.7027Y-5.2352
X2.7027Y-5.2652
X2.7027Y-5.7058
X2.7027Y-5.7358
X2.7027Y-5.7658
X2.7027Y-5.7958
X2.7027Y-5.8258
X2.7027Y-5.8558
X2.7027Y-6.2963
X2.7027Y-6.3263
X2.7027Y-6.3563
X2.7027Y-6.3863
X2.7027Y-6.4163
X2.7027Y-6.4463
X2.7327Y-5.1152
X2.7327Y-5.1452
X2.7327Y-5.1752
X2.7327Y-5.2052
X2.7327Y-5.2352
X2.7327Y-5.2652
X2.7327Y-5.7058
X2.7327Y-5.7358
X2.7327Y-5.7658
X2.7327Y-5.7958
X2.7327Y-5.8258
X2.7327Y-5.8558
X2.7327Y-6.2963
X2.7327Y-6.3263
X2.7327Y-6.3563
X2.7327Y-6.3863
X2.7327Y-6.4163
X2.7327Y-6.4463
X2.7627Y-5.1152
X2.7627Y-5.1452
X2.7627Y-5.1752
X2.7627Y-5.2052
X2.7627Y-5.2352
X2.7627Y-5.2652
X2.7627Y-5.7058
X2.7627Y-5.7358
X2.7627Y-5.7658
X2.7627Y-5.7958
X2.7627Y-5.8258
X2.7627Y-5.8558
X2.7627Y-6.2963
X2.7627Y-6.3263
X2.7627Y-6.3563
X2.7627Y-6.3863
X2.7627Y-6.4163
X2.7627Y-6.4463
X3.0265Y-5.1427
X3.0265Y-5.1727
X3.0265Y-5.2027
X3.0265Y-5.2327
X3.0265Y-5.2627
X3.0265Y-5.2927
X3.0265Y-5.7332
X3.0265Y-5.7632
X3.0265Y-5.7932
X3.0265Y-5.8232
X3.0265Y-5.8532
X3.0265Y-5.8832
X3.0265Y-6.3238
X3.0265Y-6.3538
X3.0265Y-6.3838
X3.0265Y-6.4138
X3.0265Y-6.4438
X3.0265Y-6.4738
X3.0565Y-5.1427
X3.0565Y-5.1727
X3.0565Y-5.2027
X3.0565Y-5.2327
X3.0565Y-5.2627
X3.0565Y-5.2927
X3.0565Y-5.7332
X3.0565Y-5.7632
X3.0565Y-5.7932
X3.0565Y-5.8232
X3.0565Y-5.8532
X3.0565Y-5.8832
X3.0565Y-6.3238
X3.0565Y-6.3538
X3.0565Y-6.3838
X3.0565Y-6.4138
X3.0565Y-6.4438
X3.0565Y-6.4738
X3.0865Y-5.1427
X3.0865Y-5.1727
X3.0865Y-5.2027
X3.0865Y-5.2327
X3.0865Y-5.2627
X3.0865Y-5.2927
X3.0865Y-5.7332
X3.0865Y-5.7632
X3.0865Y-5.7932
X3.0865Y-5.8232
X3.0865Y-5.8532
X3.0865Y-5.8832
X3.0865Y-6.3238
X3.0865Y-6.3538
X3.0865Y-6.3838
X3.0865Y-6.4138
X3.0865Y-6.4438
X3.0865Y-6.4738
X3.1165Y-5.1427
X3.1165Y-5.1727
X3.1165Y-5.2027
X3.1165Y-5.2327
X3.1165Y-5.2627
X3.1165Y-5.2927
X3.1165Y-5.7332
X3.1165Y-5.7632
X3.1165Y-5.7932
X3.1165Y-5.8232
X3.1165Y-5.8532
X3.1165Y-5.8832
X3.1165Y-6.3238
X3.1165Y-6.3538
X3.1165Y-6.3838
X3.1165Y-6.4138
X3.1165Y-6.4438
X3.1165Y-6.4738
X3.1465Y-5.1427
X3.1465Y-5.1727
X3.1465Y-5.2027
X3.1465Y-5.2327
X3.1465Y-5.2627
X3.1465Y-5.2927
X3.1465Y-5.7332
X3.1465Y-5.7632
X3.1465Y-5.7932
X3.1465Y-5.8232
X3.1465Y-5.8532
X3.1465Y-5.8832
X3.1465Y-6.3238
X3.1465Y-6.3538
X3.1465Y-6.3838
X3.1465Y-6.4138
X3.1465Y-6.4438
X3.1465Y-6.4738
X3.1765Y-5.1427
X3.1765Y-5.1727
X3.1765Y-5.2027
X3.1765Y-5.2327
X3.1765Y-5.2627
X3.1765Y-5.2927
X3.1765Y-5.7332
X3.1765Y-5.7632
X3.1765Y-5.7932
X3.1765Y-5.8232
X3.1765Y-5.8532
X3.1765Y-5.8832
X3.1765Y-6.3238
X3.1765Y-6.3538
X3.1765Y-6.3838
X3.1765Y-6.4138
X3.1765Y-6.4438
X3.1765Y-6.4738
X3.2194Y-4.9596
X3.2194Y-4.9896
X3.2194Y-5.0796
X3.2194Y-5.5501
X3.2194Y-5.5801
X3.2194Y-5.6701
X3.2194Y-6.1407
X3.2194Y-6.1707
X3.2194Y-6.2607
X3.2494Y-4.9596
X3.2494Y-4.9896
X3.2494Y-5.0796
X3.2494Y-5.5501
X3.2494Y-5.5801
X3.2494Y-5.6701
X3.2494Y-6.1407
X3.2494Y-6.1707
X3.2494Y-6.2607
X3.2794Y-4.9596
X3.2794Y-4.9896
X3.2794Y-5.0796
X3.2794Y-5.5501
X3.2794Y-5.5801
X3.2794Y-5.6701
X3.2794Y-6.1407
X3.2794Y-6.1707
X3.2794Y-6.2607
X3.3094Y-4.9596
X3.3094Y-4.9896
X3.3094Y-5.0196
X3.3094Y-5.0496
X3.3094Y-5.0796
X3.3094Y-5.5501
X3.3094Y-5.5801
X3.3094Y-5.6101
X3.3094Y-5.6401
X3.3094Y-5.6701
X3.3094Y-6.1407
X3.3094Y-6.1707
X3.3094Y-6.2007
X3.3094Y-6.2307
X3.3094Y-6.2607
X3.3394Y-4.9596
X3.3394Y-4.9896
X3.3394Y-5.0196
X3.3394Y-5.0496
X3.3394Y-5.0796
X3.3394Y-5.5501
X3.3394Y-5.5801
X3.3394Y-5.6101
X3.3394Y-5.6401
X3.3394Y-5.6701
X3.3394Y-6.1407
X3.3394Y-6.1707
X3.3394Y-6.2007
X3.3394Y-6.2307
X3.3394Y-6.2607
X3.3694Y-4.9596
X3.3694Y-4.9896
X3.3694Y-5.0196
X3.3694Y-5.0496
X3.3694Y-5.0796
X3.3694Y-5.5501
X3.3694Y-5.5801
X3.3694Y-5.6101
X3.3694Y-5.6401
X3.3694Y-5.6701
X3.3694Y-6.1407
X3.3694Y-6.1707
X3.3694Y-6.2007
X3.3694Y-6.2307
X3.3694Y-6.2607
X3.3994Y-4.9596
X3.3994Y-4.9896
X3.3994Y-5.0196
X3.3994Y-5.0496
X3.3994Y-5.0796
X3.3994Y-5.5501
X3.3994Y-5.5801
X3.3994Y-5.6101
X3.3994Y-5.6401
X3.3994Y-5.6701
X3.3994Y-6.1407
X3.3994Y-6.1707
X3.3994Y-6.2007
X3.3994Y-6.2307
X3.3994Y-6.2607
X3.4294Y-4.9596
X3.4294Y-4.9896
X3.4294Y-5.0196
X3.4294Y-5.0496
X3.4294Y-5.0796
X3.4294Y-5.5501
X3.4294Y-5.5801
X3.4294Y-5.6101
X3.4294Y-5.6401
X3.4294Y-5.6701
X3.4294Y-6.1407
X3.4294Y-6.1707
X3.4294Y-6.2007
X3.4294Y-6.2307
X3.4294Y-6.2607
X3.4594Y-4.9596
X3.4594Y-4.9896
X3.4594Y-5.0196
X3.4594Y-5.0496
X3.4594Y-5.0796
X3.4594Y-5.5501
X3.4594Y-5.5801
X3.4594Y-5.6101
X3.4594Y-5.6401
X3.4594Y-5.6701
X3.4594Y-6.1407
X3.4594Y-6.1707
X3.4594Y-6.2007
X3.4594Y-6.2307
X3.4594Y-6.2607
X3.4606Y-5.1554
X3.4606Y-5.746
X3.4606Y-6.3365
X3.4894Y-4.9596
X3.4894Y-4.9896
X3.4894Y-5.0196
X3.4894Y-5.0496
X3.4894Y-5.0796
X3.4894Y-5.5501
X3.4894Y-5.5801
X3.4894Y-5.6101
X3.4894Y-5.6401
X3.4894Y-5.6701
X3.4894Y-6.1407
X3.4894Y-6.1707
X3.4894Y-6.2007
X3.4894Y-6.2307
X3.4894Y-6.2607
X3.5016Y-5.142
X3.5016Y-5.7326
X3.5016Y-6.3231
X3.5194Y-4.9596
X3.5194Y-4.9896
X3.5194Y-5.0196
X3.5194Y-5.0496
X3.5194Y-5.0796
X3.5194Y-5.5501
X3.5194Y-5.5801
X3.5194Y-5.6101
X3.5194Y-5.6401
X3.5194Y-5.6701
X3.5194Y-6.1407
X3.5194Y-6.1707
X3.5194Y-6.2007
X3.5194Y-6.2307
X3.5194Y-6.2607
X3.5494Y-4.9596
X3.5494Y-4.9896
X3.5494Y-5.0196
X3.5494Y-5.0496
X3.5494Y-5.0796
X3.5494Y-5.5501
X3.5494Y-5.5801
X3.5494Y-5.6101
X3.5494Y-5.6401
X3.5494Y-5.6701
X3.5494Y-6.1407
X3.5494Y-6.1707
X3.5494Y-6.2007
X3.5494Y-6.2307
X3.5494Y-6.2607
X3.5541Y-5.2549
X3.5541Y-5.2942
X3.5541Y-5.8454
X3.5541Y-5.8848
X3.5541Y-6.436
X3.5541Y-6.4753
X3.5794Y-4.9596
X3.5794Y-4.9896
X3.5794Y-5.0196
X3.5794Y-5.0496
X3.5794Y-5.0796
X3.5794Y-5.5501
X3.5794Y-5.5801
X3.5794Y-5.6101
X3.5794Y-5.6401
X3.5794Y-5.6701
X3.5794Y-6.1407
X3.5794Y-6.1707
X3.5794Y-6.2007
X3.5794Y-6.2307
X3.5794Y-6.2607
X3.5817Y-5.2549
X3.5817Y-5.2942
X3.5817Y-5.8454
X3.5817Y-5.8848
X3.5817Y-6.436
X3.5817Y-6.4753
X3.6976Y-7.0457
X4.6278Y-4.8921
X4.6278Y-4.9315
X4.6278Y-5.4826
X4.6278Y-5.522
X4.6278Y-6.0732
X4.6278Y-6.1126
X4.63Y-5.1067
X4.63Y-5.1367
X4.63Y-5.1667
X4.63Y-5.1967
X4.63Y-5.2267
X4.63Y-5.6973
X4.63Y-5.7273
X4.63Y-5.7573
X4.63Y-5.7873
X4.63Y-5.8173
X4.63Y-6.2878
X4.63Y-6.3178
X4.63Y-6.3478
X4.63Y-6.3778
X4.63Y-6.4078
X4.6554Y-4.8921
X4.6554Y-4.9315
X4.6554Y-5.4826
X4.6554Y-5.522
X4.6554Y-6.0732
X4.6554Y-6.1126
X4.66Y-5.1067
X4.66Y-5.1367
X4.66Y-5.1667
X4.66Y-5.1967
X4.66Y-5.2267
X4.66Y-5.6973
X4.66Y-5.7273
X4.66Y-5.7573
X4.66Y-5.7873
X4.66Y-5.8173
X4.66Y-6.2878
X4.66Y-6.3178
X4.66Y-6.3478
X4.66Y-6.3778
X4.66Y-6.4078
X4.69Y-5.1067
X4.69Y-5.1367
X4.69Y-5.1667
X4.69Y-5.1967
X4.69Y-5.2267
X4.69Y-5.6973
X4.69Y-5.7273
X4.69Y-5.7573
X4.69Y-5.7873
X4.69Y-5.8173
X4.69Y-6.2878
X4.69Y-6.3178
X4.69Y-6.3478
X4.69Y-6.3778
X4.69Y-6.4078
X4.7079Y-5.0443
X4.7079Y-5.6349
X4.7079Y-6.2254
X4.72Y-5.1067
X4.72Y-5.1367
X4.72Y-5.1667
X4.72Y-5.1967
X4.72Y-5.2267
X4.72Y-5.6973
X4.72Y-5.7273
X4.72Y-5.7573
X4.72Y-5.7873
X4.72Y-5.8173
X4.72Y-6.2878
X4.72Y-6.3178
X4.72Y-6.3478
X4.72Y-6.3778
X4.72Y-6.4078
X4.7488Y-5.0309
X4.7488Y-5.6215
X4.7488Y-6.212
X4.75Y-5.1067
X4.75Y-5.1367
X4.75Y-5.1667
X4.75Y-5.1967
X4.75Y-5.2267
X4.75Y-5.6973
X4.75Y-5.7273
X4.75Y-5.7573
X4.75Y-5.7873
X4.75Y-5.8173
X4.75Y-6.2878
X4.75Y-6.3178
X4.75Y-6.3478
X4.75Y-6.3778
X4.75Y-6.4078
X4.78Y-5.1067
X4.78Y-5.1367
X4.78Y-5.1667
X4.78Y-5.1967
X4.78Y-5.2267
X4.78Y-5.6973
X4.78Y-5.7273
X4.78Y-5.7573
X4.78Y-5.7873
X4.78Y-5.8173
X4.78Y-6.2878
X4.78Y-6.3178
X4.78Y-6.3478
X4.78Y-6.3778
X4.78Y-6.4078
X4.81Y-5.1067
X4.81Y-5.1367
X4.81Y-5.1667
X4.81Y-5.1967
X4.81Y-5.2267
X4.81Y-5.6973
X4.81Y-5.7273
X4.81Y-5.7573
X4.81Y-5.7873
X4.81Y-5.8173
X4.81Y-6.2878
X4.81Y-6.3178
X4.81Y-6.3478
X4.81Y-6.3778
X4.81Y-6.4078
X4.84Y-5.1067
X4.84Y-5.1367
X4.84Y-5.1667
X4.84Y-5.1967
X4.84Y-5.2267
X4.84Y-5.6973
X4.84Y-5.7273
X4.84Y-5.7573
X4.84Y-5.7873
X4.84Y-5.8173
X4.84Y-6.2878
X4.84Y-6.3178
X4.84Y-6.3478
X4.84Y-6.3778
X4.84Y-6.4078
X4.87Y-5.1067
X4.87Y-5.1367
X4.87Y-5.1667
X4.87Y-5.1967
X4.87Y-5.2267
X4.87Y-5.6973
X4.87Y-5.7273
X4.87Y-5.7573
X4.87Y-5.7873
X4.87Y-5.8173
X4.87Y-6.2878
X4.87Y-6.3178
X4.87Y-6.3478
X4.87Y-6.3778
X4.87Y-6.4078
X4.9Y-5.1067
X4.9Y-5.1367
X4.9Y-5.1667
X4.9Y-5.1967
X4.9Y-5.2267
X4.9Y-5.6973
X4.9Y-5.7273
X4.9Y-5.7573
X4.9Y-5.7873
X4.9Y-5.8173
X4.9Y-6.2878
X4.9Y-6.3178
X4.9Y-6.3478
X4.9Y-6.3778
X4.9Y-6.4078
X4.93Y-5.1067
X4.93Y-5.1967
X4.93Y-5.2267
X4.93Y-5.6973
X4.93Y-5.7873
X4.93Y-5.8173
X4.93Y-6.2878
X4.93Y-6.3778
X4.93Y-6.4078
X4.96Y-5.1067
X4.96Y-5.1967
X4.96Y-5.2267
X4.96Y-5.6973
X4.96Y-5.7873
X4.96Y-5.8173
X4.96Y-6.2878
X4.96Y-6.3778
X4.96Y-6.4078
X4.99Y-5.1067
X4.99Y-5.1967
X4.99Y-5.2267
X4.99Y-5.6973
X4.99Y-5.7873
X4.99Y-5.8173
X4.99Y-6.2878
X4.99Y-6.3778
X4.99Y-6.4078
X5.0329Y-4.8937
X5.0329Y-4.9237
X5.0329Y-4.9537
X5.0329Y-4.9837
X5.0329Y-5.0137
X5.0329Y-5.0437
X5.0329Y-5.4842
X5.0329Y-5.5142
X5.0329Y-5.5442
X5.0329Y-5.5742
X5.0329Y-5.6042
X5.0329Y-5.6342
X5.0329Y-6.0748
X5.0329Y-6.1048
X5.0329Y-6.1348
X5.0329Y-6.1648
X5.0329Y-6.1948
X5.0329Y-6.2248
X5.0629Y-4.8937
X5.0629Y-4.9237
X5.0629Y-4.9537
X5.0629Y-4.9837
X5.0629Y-5.0137
X5.0629Y-5.0437
X5.0629Y-5.4842
X5.0629Y-5.5142
X5.0629Y-5.5442
X5.0629Y-5.5742
X5.0629Y-5.6042
X5.0629Y-5.6342
X5.0629Y-6.0748
X5.0629Y-6.1048
X5.0629Y-6.1348
X5.0629Y-6.1648
X5.0629Y-6.1948
X5.0629Y-6.2248
X5.0929Y-4.8937
X5.0929Y-4.9237
X5.0929Y-4.9537
X5.0929Y-4.9837
X5.0929Y-5.0137
X5.0929Y-5.0437
X5.0929Y-5.4842
X5.0929Y-5.5142
X5.0929Y-5.5442
X5.0929Y-5.5742
X5.0929Y-5.6042
X5.0929Y-5.6342
X5.0929Y-6.0748
X5.0929Y-6.1048
X5.0929Y-6.1348
X5.0929Y-6.1648
X5.0929Y-6.1948
X5.0929Y-6.2248
X5.1229Y-4.8937
X5.1229Y-4.9237
X5.1229Y-4.9537
X5.1229Y-4.9837
X5.1229Y-5.0137
X5.1229Y-5.0437
X5.1229Y-5.4842
X5.1229Y-5.5142
X5.1229Y-5.5442
X5.1229Y-5.5742
X5.1229Y-5.6042
X5.1229Y-5.6342
X5.1229Y-6.0748
X5.1229Y-6.1048
X5.1229Y-6.1348
X5.1229Y-6.1648
X5.1229Y-6.1948
X5.1229Y-6.2248
X5.1529Y-4.8937
X5.1529Y-4.9237
X5.1529Y-4.9537
X5.1529Y-4.9837
X5.1529Y-5.0137
X5.1529Y-5.0437
X5.1529Y-5.4842
X5.1529Y-5.5142
X5.1529Y-5.5442
X5.1529Y-5.5742
X5.1529Y-5.6042
X5.1529Y-5.6342
X5.1529Y-6.0748
X5.1529Y-6.1048
X5.1529Y-6.1348
X5.1529Y-6.1648
X5.1529Y-6.1948
X5.1529Y-6.2248
X5.1829Y-4.8937
X5.1829Y-4.9237
X5.1829Y-4.9537
X5.1829Y-4.9837
X5.1829Y-5.0137
X5.1829Y-5.0437
X5.1829Y-5.4842
X5.1829Y-5.5142
X5.1829Y-5.5442
X5.1829Y-5.5742
X5.1829Y-5.6042
X5.1829Y-5.6342
X5.1829Y-6.0748
X5.1829Y-6.1048
X5.1829Y-6.1348
X5.1829Y-6.1648
X5.1829Y-6.1948
X5.1829Y-6.2248
X5.2803Y-6.989
X5.4468Y-4.9211
X5.4468Y-4.9511
X5.4468Y-4.9811
X5.4468Y-5.0111
X5.4468Y-5.0411
X5.4468Y-5.0711
X5.4468Y-5.5117
X5.4468Y-5.5417
X5.4468Y-5.5717
X5.4468Y-5.6017
X5.4468Y-5.6317
X5.4468Y-5.6617
X5.4468Y-6.1022
X5.4468Y-6.1322
X5.4468Y-6.1622
X5.4468Y-6.1922
X5.4468Y-6.2222
X5.4468Y-6.2522
X5.4768Y-4.9211
X5.4768Y-4.9511
X5.4768Y-4.9811
X5.4768Y-5.0111
X5.4768Y-5.0411
X5.4768Y-5.0711
X5.4768Y-5.5117
X5.4768Y-5.5417
X5.4768Y-5.5717
X5.4768Y-5.6017
X5.4768Y-5.6317
X5.4768Y-5.6617
X5.4768Y-6.1022
X5.4768Y-6.1322
X5.4768Y-6.1622
X5.4768Y-6.1922
X5.4768Y-6.2222
X5.4768Y-6.2522
X5.5068Y-4.9211
X5.5068Y-4.9511
X5.5068Y-4.9811
X5.5068Y-5.0111
X5.5068Y-5.0411
X5.5068Y-5.0711
X5.5068Y-5.5117
X5.5068Y-5.5417
X5.5068Y-5.5717
X5.5068Y-5.6017
X5.5068Y-5.6317
X5.5068Y-5.6617
X5.5068Y-6.1022
X5.5068Y-6.1322
X5.5068Y-6.1622
X5.5068Y-6.1922
X5.5068Y-6.2222
X5.5068Y-6.2522
X5.5368Y-4.9211
X5.5368Y-4.9511
X5.5368Y-4.9811
X5.5368Y-5.0111
X5.5368Y-5.0411
X5.5368Y-5.0711
X5.5368Y-5.5117
X5.5368Y-5.5417
X5.5368Y-5.5717
X5.5368Y-5.6017
X5.5368Y-5.6317
X5.5368Y-5.6617
X5.5368Y-6.1022
X5.5368Y-6.1322
X5.5368Y-6.1622
X5.5368Y-6.1922
X5.5368Y-6.2222
X5.5368Y-6.2522
X5.5668Y-4.9211
X5.5668Y-4.9511
X5.5668Y-4.9811
X5.5668Y-5.0111
X5.5668Y-5.0411
X5.5668Y-5.0711
X5.5668Y-5.5117
X5.5668Y-5.5417
X5.5668Y-5.5717
X5.5668Y-5.6017
X5.5668Y-5.6317
X5.5668Y-5.6617
X5.5668Y-6.1022
X5.5668Y-6.1322
X5.5668Y-6.1622
X5.5668Y-6.1922
X5.5668Y-6.2222
X5.5668Y-6.2522
X5.5968Y-4.9211
X5.5968Y-4.9511
X5.5968Y-4.9811
X5.5968Y-5.0111
X5.5968Y-5.0411
X5.5968Y-5.0711
X5.5968Y-5.5117
X5.5968Y-5.5417
X5.5968Y-5.5717
X5.5968Y-5.6017
X5.5968Y-5.6317
X5.5968Y-5.6617
X5.5968Y-6.1022
X5.5968Y-6.1322
X5.5968Y-6.1622
X5.5968Y-6.1922
X5.5968Y-6.2222
X5.5968Y-6.2522
X5.6268Y-4.9211
X5.6268Y-4.9511
X5.6268Y-4.9811
X5.6268Y-5.0111
X5.6268Y-5.0411
X5.6268Y-5.0711
X5.6268Y-5.5117
X5.6268Y-5.5417
X5.6268Y-5.5717
X5.6268Y-5.6017
X5.6268Y-5.6317
X5.6268Y-5.6617
X5.6268Y-6.1022
X5.6268Y-6.1322
X5.6268Y-6.1622
X5.6268Y-6.1922
X5.6268Y-6.2222
X5.6268Y-6.2522
X5.6568Y-4.9211
X5.6568Y-4.9511
X5.6568Y-4.9811
X5.6568Y-5.0111
X5.6568Y-5.0411
X5.6568Y-5.0711
X5.6568Y-5.5117
X5.6568Y-5.5417
X5.6568Y-5.5717
X5.6568Y-5.6017
X5.6568Y-5.6317
X5.6568Y-5.6617
X5.6568Y-6.1022
X5.6568Y-6.1322
X5.6568Y-6.1622
X5.6568Y-6.1922
X5.6568Y-6.2222
X5.6568Y-6.2522
X5.7164Y-5.1844
X5.7164Y-5.2144
X5.7164Y-5.2444
X5.7164Y-5.2744
X5.7164Y-5.3044
X5.7164Y-5.7749
X5.7164Y-5.8049
X5.7164Y-5.8349
X5.7164Y-5.8649
X5.7164Y-5.8949
X5.7164Y-6.3655
X5.7164Y-6.3955
X5.7164Y-6.4255
X5.7164Y-6.4555
X5.7164Y-6.4855
T3
X3.7889Y-6.2549
X3.7889Y-6.3533
T4
X3.513Y-3.2661
X3.5626Y-3.1661
X3.613Y-3.2661
X3.6626Y-3.1661
X3.713Y-3.2661
X3.7626Y-3.1661
X3.813Y-3.2661
X3.8626Y-3.1661
X4.2695Y-3.2677
X4.3191Y-3.1677
X4.3695Y-3.2677
X4.4191Y-3.1677
X4.4695Y-3.2677
X4.5191Y-3.1677
X4.5695Y-3.2677
X4.6191Y-3.1677
T5
X2.752Y-3.8811
X2.752Y-3.9598
X2.752Y-4.0386
X2.752Y-4.1173
X2.752Y-4.1961
X2.752Y-4.2748
X2.752Y-4.3535
X2.752Y-4.4323
X2.752Y-4.511
X2.752Y-4.5898
X2.8307Y-3.8811
X2.8307Y-3.9598
X2.8307Y-4.0386
X2.8307Y-4.1173
X2.8307Y-4.1961
X2.8307Y-4.2748
X2.8307Y-4.3535
X2.8307Y-4.4323
X2.8307Y-4.511
X2.8307Y-4.5898
X5.3853Y-3.9637
X5.3853Y-4.0425
X5.3853Y-4.1212
X5.3853Y-4.1999
X5.3853Y-4.2787
X5.3853Y-4.3574
X5.3853Y-4.4362
X5.3853Y-4.5149
X5.3853Y-4.5936
X5.3853Y-4.6724
X5.4641Y-3.9637
X5.4641Y-4.0425
X5.4641Y-4.1212
X5.4641Y-4.1999
X5.4641Y-4.2787
X5.4641Y-4.3574
X5.4641Y-4.4362
X5.4641Y-4.5149
X5.4641Y-4.5936
X5.4641Y-4.6724
T6
X5.0972Y-2.9925
X5.0972Y-3.0713
X5.1957Y-2.9925
X5.1957Y-3.0713
T8
X3.427Y-2.7228
X3.527Y-2.7228
X3.8486Y-2.7228
X3.9486Y-2.7228
X4.1835Y-2.7244
X4.2835Y-2.7244
X4.6051Y-2.7244
X4.7051Y-2.7244
T9
X1.7484Y-3.8291
T10
X3.3829Y-3.0358
X3.9927Y-3.0358
X4.1394Y-3.0374
X4.7492Y-3.0374
T11
X1.6484Y-3.7291
X1.6484Y-3.9291
X1.8484Y-3.7291
X1.8484Y-3.9291
T12
X4.9094Y-2.8858
X5.3835Y-2.8858
T13
X3.9449Y-6.9961
X4.2283Y-6.9961
T7
G00X2.5827Y-5.0577
M15
G01X2.5512Y-5.0577
M16
G05
G00X2.5827Y-5.3333
M15
G01X2.5512Y-5.3333
M16
G05
G00X2.5827Y-5.6483
M15
G01X2.5512Y-5.6483
M16
G05
G00X2.5827Y-5.9239
M15
G01X2.5512Y-5.9239
M16
G05
G00X2.5827Y-6.2388
M15
G01X2.5512Y-6.2388
M16
G05
G00X2.5827Y-6.5144
M15
G01X2.5512Y-6.5144
M16
G05
G00X2.7795Y-5.0577
M15
G01X2.748Y-5.0577
M16
G05
G00X2.7795Y-5.3333
M15
G01X2.748Y-5.3333
M16
G05
G00X2.7795Y-5.6483
M15
G01X2.748Y-5.6483
M16
G05
G00X2.7795Y-5.9239
M15
G01X2.748Y-5.9239
M16
G05
G00X2.7795Y-6.2388
M15
G01X2.748Y-6.2388
M16
G05
G00X2.7795Y-6.5144
M15
G01X2.748Y-6.5144
M16
G05
G00X5.4299Y-4.853
M15
G01X5.4614Y-4.853
M16
G05
G00X5.4299Y-5.1286
M15
G01X5.4614Y-5.1286
M16
G05
G00X5.4299Y-5.4436
M15
G01X5.4614Y-5.4436
M16
G05
G00X5.4299Y-5.7191
M15
G01X5.4614Y-5.7191
M16
G05
G00X5.4299Y-6.0341
M15
G01X5.4614Y-6.0341
M16
G05
G00X5.4299Y-6.3097
M15
G01X5.4614Y-6.3097
M16
G05
G00X5.6268Y-4.853
M15
G01X5.6583Y-4.853
M16
G05
G00X5.6268Y-5.1286
M15
G01X5.6583Y-5.1286
M16
G05
G00X5.6268Y-5.4436
M15
G01X5.6583Y-5.4436
M16
G05
G00X5.6268Y-5.7191
M15
G01X5.6583Y-5.7191
M16
G05
G00X5.6268Y-6.0341
M15
G01X5.6583Y-6.0341
M16
G05
G00X5.6268Y-6.3097
M15
G01X5.6583Y-6.3097
M16
G05
M30
