%TF.GenerationSoftware,KiCad,Pcbnew,9.0.2-9-g92f6307ebb*%
%TF.CreationDate,2025-06-20T01:42:08+08:00*%
%TF.ProjectId,HPM5E31_ECatDualFOC,48504d35-4533-4315-9f45-436174447561,rev?*%
%TF.SameCoordinates,Original*%
%TF.FileFunction,Legend,Bot*%
%TF.FilePolarity,Positive*%
%FSLAX46Y46*%
G04 Gerber Fmt 4.6, Leading zero omitted, Abs format (unit mm)*
G04 Created by KiCad (PCBNEW 9.0.2-9-g92f6307ebb) date 2025-06-20 01:42:08*
%MOMM*%
%LPD*%
G01*
G04 APERTURE LIST*
G04 Aperture macros list*
%AMRoundRect*
0 Rectangle with rounded corners*
0 $1 Rounding radius*
0 $2 $3 $4 $5 $6 $7 $8 $9 X,Y pos of 4 corners*
0 Add a 4 corners polygon primitive as box body*
4,1,4,$2,$3,$4,$5,$6,$7,$8,$9,$2,$3,0*
0 Add four circle primitives for the rounded corners*
1,1,$1+$1,$2,$3*
1,1,$1+$1,$4,$5*
1,1,$1+$1,$6,$7*
1,1,$1+$1,$8,$9*
0 Add four rect primitives between the rounded corners*
20,1,$1+$1,$2,$3,$4,$5,0*
20,1,$1+$1,$4,$5,$6,$7,0*
20,1,$1+$1,$6,$7,$8,$9,0*
20,1,$1+$1,$8,$9,$2,$3,0*%
G04 Aperture macros list end*
%ADD10C,0.120000*%
%ADD11C,3.250000*%
%ADD12RoundRect,0.250500X0.499500X0.499500X-0.499500X0.499500X-0.499500X-0.499500X0.499500X-0.499500X0*%
%ADD13C,1.500000*%
%ADD14C,2.500000*%
%ADD15R,1.200000X1.200000*%
%ADD16C,1.200000*%
%ADD17R,1.700000X1.700000*%
%ADD18C,1.700000*%
%ADD19C,3.500000*%
%ADD20O,2.200000X1.400000*%
%ADD21C,2.050000*%
%ADD22C,2.250000*%
%ADD23RoundRect,1.500000X-1.500000X-1.500000X1.500000X-1.500000X1.500000X1.500000X-1.500000X1.500000X0*%
%ADD24C,6.000000*%
%ADD25RoundRect,0.100000X-0.130000X-0.100000X0.130000X-0.100000X0.130000X0.100000X-0.130000X0.100000X0*%
%ADD26RoundRect,0.225000X0.225000X0.250000X-0.225000X0.250000X-0.225000X-0.250000X0.225000X-0.250000X0*%
%ADD27RoundRect,0.162500X-0.162500X0.650000X-0.162500X-0.650000X0.162500X-0.650000X0.162500X0.650000X0*%
%ADD28RoundRect,0.100000X0.130000X0.100000X-0.130000X0.100000X-0.130000X-0.100000X0.130000X-0.100000X0*%
%ADD29RoundRect,0.135000X-0.185000X0.135000X-0.185000X-0.135000X0.185000X-0.135000X0.185000X0.135000X0*%
%ADD30RoundRect,0.200000X-0.200000X-0.275000X0.200000X-0.275000X0.200000X0.275000X-0.200000X0.275000X0*%
%ADD31RoundRect,0.135000X0.185000X-0.135000X0.185000X0.135000X-0.185000X0.135000X-0.185000X-0.135000X0*%
%ADD32RoundRect,0.250000X-0.362500X-1.425000X0.362500X-1.425000X0.362500X1.425000X-0.362500X1.425000X0*%
%ADD33RoundRect,0.250000X0.550000X-0.550000X0.550000X0.550000X-0.550000X0.550000X-0.550000X-0.550000X0*%
%ADD34C,1.600000*%
%ADD35RoundRect,0.200000X0.200000X0.275000X-0.200000X0.275000X-0.200000X-0.275000X0.200000X-0.275000X0*%
%ADD36RoundRect,0.140000X-0.140000X-0.170000X0.140000X-0.170000X0.140000X0.170000X-0.140000X0.170000X0*%
%ADD37RoundRect,0.147500X-0.172500X0.147500X-0.172500X-0.147500X0.172500X-0.147500X0.172500X0.147500X0*%
%ADD38RoundRect,0.100000X-0.100000X0.130000X-0.100000X-0.130000X0.100000X-0.130000X0.100000X0.130000X0*%
%ADD39RoundRect,0.140000X-0.170000X0.140000X-0.170000X-0.140000X0.170000X-0.140000X0.170000X0.140000X0*%
%ADD40RoundRect,0.140000X0.021213X-0.219203X0.219203X-0.021213X-0.021213X0.219203X-0.219203X0.021213X0*%
%ADD41RoundRect,0.140000X0.140000X0.170000X-0.140000X0.170000X-0.140000X-0.170000X0.140000X-0.170000X0*%
%ADD42RoundRect,0.140000X0.170000X-0.140000X0.170000X0.140000X-0.170000X0.140000X-0.170000X-0.140000X0*%
%ADD43RoundRect,0.225000X-0.225000X-0.250000X0.225000X-0.250000X0.225000X0.250000X-0.225000X0.250000X0*%
%ADD44RoundRect,0.147500X-0.147500X-0.172500X0.147500X-0.172500X0.147500X0.172500X-0.147500X0.172500X0*%
%ADD45RoundRect,0.250000X1.000000X0.900000X-1.000000X0.900000X-1.000000X-0.900000X1.000000X-0.900000X0*%
%ADD46RoundRect,0.250000X-0.450000X0.262500X-0.450000X-0.262500X0.450000X-0.262500X0.450000X0.262500X0*%
%ADD47RoundRect,0.100000X0.100000X-0.130000X0.100000X0.130000X-0.100000X0.130000X-0.100000X-0.130000X0*%
G04 APERTURE END LIST*
D10*
%TO.C,C123*%
X92305580Y-77940000D02*
X92024420Y-77940000D01*
X92305580Y-78960000D02*
X92024420Y-78960000D01*
%TO.C,U9*%
X161240000Y-90190000D02*
X161510000Y-90190000D01*
X161240000Y-92950000D02*
X161240000Y-90190000D01*
X161240000Y-92950000D02*
X161240000Y-95710000D01*
X161240000Y-95710000D02*
X161510000Y-95710000D01*
X166760000Y-90190000D02*
X166490000Y-90190000D01*
X166760000Y-92950000D02*
X166760000Y-90190000D01*
X166760000Y-92950000D02*
X166760000Y-95710000D01*
X166760000Y-95710000D02*
X166490000Y-95710000D01*
X161510000Y-89425000D02*
X161180000Y-89665000D01*
X161180000Y-89185000D01*
X161510000Y-89425000D01*
G36*
X161510000Y-89425000D02*
G01*
X161180000Y-89665000D01*
X161180000Y-89185000D01*
X161510000Y-89425000D01*
G37*
%TO.C,R9*%
X129070000Y-81196359D02*
X129070000Y-81503641D01*
X129830000Y-81196359D02*
X129830000Y-81503641D01*
%TO.C,R79*%
X66762742Y-102057500D02*
X67237258Y-102057500D01*
X66762742Y-103102500D02*
X67237258Y-103102500D01*
%TO.C,R99*%
X97360000Y-67003641D02*
X97360000Y-66696359D01*
X98120000Y-67003641D02*
X98120000Y-66696359D01*
%TO.C,R57*%
X47885436Y-162590000D02*
X52239564Y-162590000D01*
X47885436Y-166010000D02*
X52239564Y-166010000D01*
%TO.C,C28*%
X95197500Y-157845000D02*
X94986500Y-157845000D01*
X95197500Y-157885000D02*
X94918500Y-157885000D01*
X95197500Y-157925000D02*
X94854500Y-157925000D01*
X95197500Y-157965000D02*
X94794500Y-157965000D01*
X95197500Y-158005000D02*
X94738500Y-158005000D01*
X95197500Y-158045000D02*
X94684500Y-158045000D01*
X95197500Y-158085000D02*
X94633500Y-158085000D01*
X95197500Y-158125000D02*
X94585500Y-158125000D01*
X95197500Y-158165000D02*
X94538500Y-158165000D01*
X95197500Y-158205000D02*
X94494500Y-158205000D01*
X95197500Y-158245000D02*
X94452500Y-158245000D01*
X95197500Y-158285000D02*
X94412500Y-158285000D01*
X95197500Y-158325000D02*
X94373500Y-158325000D01*
X95197500Y-158365000D02*
X94336500Y-158365000D01*
X95197500Y-158405000D02*
X94301500Y-158405000D01*
X95197500Y-158445000D02*
X94267500Y-158445000D01*
X95197500Y-158485000D02*
X94234500Y-158485000D01*
X95197500Y-158525000D02*
X94202500Y-158525000D01*
X95197500Y-158565000D02*
X94172500Y-158565000D01*
X95197500Y-158605000D02*
X94143500Y-158605000D01*
X95197500Y-158645000D02*
X94115500Y-158645000D01*
X95197500Y-158685000D02*
X94088500Y-158685000D01*
X95197500Y-158725000D02*
X94062500Y-158725000D01*
X95197500Y-158765000D02*
X94038500Y-158765000D01*
X95197500Y-158805000D02*
X94014500Y-158805000D01*
X95197500Y-158845000D02*
X93991500Y-158845000D01*
X95197500Y-158885000D02*
X93969500Y-158885000D01*
X95197500Y-158925000D02*
X93948500Y-158925000D01*
X95197500Y-158965000D02*
X93928500Y-158965000D01*
X95197500Y-159005000D02*
X93908500Y-159005000D01*
X95197500Y-159045000D02*
X93890500Y-159045000D01*
X95197500Y-159085000D02*
X93872500Y-159085000D01*
X95197500Y-159125000D02*
X93855500Y-159125000D01*
X95197500Y-159165000D02*
X93839500Y-159165000D01*
X95197500Y-159205000D02*
X93824500Y-159205000D01*
X95197500Y-159245000D02*
X93809500Y-159245000D01*
X95197500Y-159285000D02*
X93795500Y-159285000D01*
X95197500Y-159325000D02*
X93782500Y-159325000D01*
X95197500Y-159365000D02*
X93770500Y-159365000D01*
X95197500Y-159405000D02*
X93758500Y-159405000D01*
X95197500Y-159445000D02*
X93747500Y-159445000D01*
X95197500Y-159485000D02*
X93736500Y-159485000D01*
X95197500Y-159525000D02*
X93727500Y-159525000D01*
X95197500Y-159565000D02*
X93718500Y-159565000D01*
X95197500Y-159605000D02*
X93709500Y-159605000D01*
X95197500Y-159645000D02*
X93701500Y-159645000D01*
X95197500Y-159685000D02*
X93694500Y-159685000D01*
X95197500Y-159725000D02*
X93688500Y-159725000D01*
X95197500Y-159765000D02*
X93682500Y-159765000D01*
X95197500Y-159805000D02*
X93677500Y-159805000D01*
X95197500Y-159845000D02*
X93672500Y-159845000D01*
X95197500Y-159885000D02*
X93668500Y-159885000D01*
X96520500Y-157525000D02*
X95954500Y-157525000D01*
X96754500Y-157565000D02*
X95720500Y-157565000D01*
X96914500Y-157605000D02*
X95560500Y-157605000D01*
X97042500Y-157645000D02*
X95432500Y-157645000D01*
X97151500Y-157685000D02*
X95323500Y-157685000D01*
X97248500Y-157725000D02*
X95226500Y-157725000D01*
X97335500Y-157765000D02*
X95139500Y-157765000D01*
X97414500Y-157805000D02*
X95060500Y-157805000D01*
X97488500Y-157845000D02*
X97277500Y-157845000D01*
X97556500Y-157885000D02*
X97277500Y-157885000D01*
X97620500Y-157925000D02*
X97277500Y-157925000D01*
X97680500Y-157965000D02*
X97277500Y-157965000D01*
X97712500Y-162929775D02*
X97712500Y-162429775D01*
X97736500Y-158005000D02*
X97277500Y-158005000D01*
X97790500Y-158045000D02*
X97277500Y-158045000D01*
X97841500Y-158085000D02*
X97277500Y-158085000D01*
X97889500Y-158125000D02*
X97277500Y-158125000D01*
X97936500Y-158165000D02*
X97277500Y-158165000D01*
X97962500Y-162679775D02*
X97462500Y-162679775D01*
X97980500Y-158205000D02*
X97277500Y-158205000D01*
X98022500Y-158245000D02*
X97277500Y-158245000D01*
X98062500Y-158285000D02*
X97277500Y-158285000D01*
X98101500Y-158325000D02*
X97277500Y-158325000D01*
X98138500Y-158365000D02*
X97277500Y-158365000D01*
X98173500Y-158405000D02*
X97277500Y-158405000D01*
X98207500Y-158445000D02*
X97277500Y-158445000D01*
X98240500Y-158485000D02*
X97277500Y-158485000D01*
X98272500Y-158525000D02*
X97277500Y-158525000D01*
X98302500Y-158565000D02*
X97277500Y-158565000D01*
X98331500Y-158605000D02*
X97277500Y-158605000D01*
X98359500Y-158645000D02*
X97277500Y-158645000D01*
X98386500Y-158685000D02*
X97277500Y-158685000D01*
X98412500Y-158725000D02*
X97277500Y-158725000D01*
X98436500Y-158765000D02*
X97277500Y-158765000D01*
X98460500Y-158805000D02*
X97277500Y-158805000D01*
X98483500Y-158845000D02*
X97277500Y-158845000D01*
X98505500Y-158885000D02*
X97277500Y-158885000D01*
X98526500Y-158925000D02*
X97277500Y-158925000D01*
X98546500Y-158965000D02*
X97277500Y-158965000D01*
X98566500Y-159005000D02*
X97277500Y-159005000D01*
X98584500Y-159045000D02*
X97277500Y-159045000D01*
X98602500Y-159085000D02*
X97277500Y-159085000D01*
X98619500Y-159125000D02*
X97277500Y-159125000D01*
X98635500Y-159165000D02*
X97277500Y-159165000D01*
X98650500Y-159205000D02*
X97277500Y-159205000D01*
X98665500Y-159245000D02*
X97277500Y-159245000D01*
X98679500Y-159285000D02*
X97277500Y-159285000D01*
X98692500Y-159325000D02*
X97277500Y-159325000D01*
X98704500Y-159365000D02*
X97277500Y-159365000D01*
X98716500Y-159405000D02*
X97277500Y-159405000D01*
X98727500Y-159445000D02*
X97277500Y-159445000D01*
X98738500Y-159485000D02*
X97277500Y-159485000D01*
X98747500Y-159525000D02*
X97277500Y-159525000D01*
X98756500Y-159565000D02*
X97277500Y-159565000D01*
X98765500Y-159605000D02*
X97277500Y-159605000D01*
X98773500Y-159645000D02*
X97277500Y-159645000D01*
X98780500Y-159685000D02*
X97277500Y-159685000D01*
X98786500Y-159725000D02*
X97277500Y-159725000D01*
X98792500Y-159765000D02*
X97277500Y-159765000D01*
X98797500Y-159805000D02*
X97277500Y-159805000D01*
X98802500Y-159845000D02*
X97277500Y-159845000D01*
X98806500Y-159885000D02*
X97277500Y-159885000D01*
X98809500Y-159925000D02*
X93665500Y-159925000D01*
X98812500Y-159965000D02*
X93662500Y-159965000D01*
X98814500Y-160005000D02*
X93660500Y-160005000D01*
X98816500Y-160045000D02*
X93658500Y-160045000D01*
X98817500Y-160085000D02*
X93657500Y-160085000D01*
X98817500Y-160125000D02*
X93657500Y-160125000D01*
X98857500Y-160125000D02*
G75*
G02*
X93617500Y-160125000I-2620000J0D01*
G01*
X93617500Y-160125000D02*
G75*
G02*
X98857500Y-160125000I2620000J0D01*
G01*
%TO.C,R86*%
X141924758Y-118155900D02*
X141450242Y-118155900D01*
X141924758Y-119200900D02*
X141450242Y-119200900D01*
%TO.C,R80*%
X66762742Y-110057500D02*
X67237258Y-110057500D01*
X66762742Y-111102500D02*
X67237258Y-111102500D01*
%TO.C,R91*%
X141924758Y-102105900D02*
X141450242Y-102105900D01*
X141924758Y-103150900D02*
X141450242Y-103150900D01*
%TO.C,C120*%
X99062164Y-87590000D02*
X99277836Y-87590000D01*
X99062164Y-88310000D02*
X99277836Y-88310000D01*
%TO.C,C15*%
X176620000Y-95442164D02*
X176620000Y-95657836D01*
X177340000Y-95442164D02*
X177340000Y-95657836D01*
%TO.C,C20*%
X177322164Y-92770000D02*
X177537836Y-92770000D01*
X177322164Y-93490000D02*
X177537836Y-93490000D01*
%TO.C,R81*%
X66762742Y-112057500D02*
X67237258Y-112057500D01*
X66762742Y-113102500D02*
X67237258Y-113102500D01*
%TO.C,C11*%
X150052164Y-103450000D02*
X150267836Y-103450000D01*
X150052164Y-104170000D02*
X150267836Y-104170000D01*
%TO.C,C114*%
X92290000Y-89192164D02*
X92290000Y-89407836D01*
X93010000Y-89192164D02*
X93010000Y-89407836D01*
%TO.C,C19*%
X178590000Y-95442164D02*
X178590000Y-95657836D01*
X179310000Y-95442164D02*
X179310000Y-95657836D01*
%TO.C,C133*%
X111580580Y-77440000D02*
X111299420Y-77440000D01*
X111580580Y-78460000D02*
X111299420Y-78460000D01*
%TO.C,C116*%
X94469190Y-91221693D02*
X94621693Y-91069190D01*
X94978307Y-91730810D02*
X95130810Y-91578307D01*
%TO.C,C115*%
X92250336Y-87486250D02*
X92034664Y-87486250D01*
X92250336Y-88206250D02*
X92034664Y-88206250D01*
%TO.C,C22*%
X130080000Y-81467836D02*
X130080000Y-81252164D01*
X130800000Y-81467836D02*
X130800000Y-81252164D01*
%TO.C,R96*%
X86660000Y-67003641D02*
X86660000Y-66696359D01*
X87420000Y-67003641D02*
X87420000Y-66696359D01*
%TO.C,R39*%
X47922936Y-157990000D02*
X52277064Y-157990000D01*
X47922936Y-161410000D02*
X52277064Y-161410000D01*
%TO.C,C118*%
X94974420Y-77940000D02*
X95255580Y-77940000D01*
X94974420Y-78960000D02*
X95255580Y-78960000D01*
%TO.C,R82*%
X66762742Y-114107500D02*
X67237258Y-114107500D01*
X66762742Y-115152500D02*
X67237258Y-115152500D01*
%TO.C,D3*%
X107960000Y-169200000D02*
X102150000Y-169200000D01*
X107960000Y-169200000D02*
X107960000Y-173500000D01*
X107960000Y-173500000D02*
X102150000Y-173500000D01*
%TO.C,R87*%
X141924758Y-116155900D02*
X141450242Y-116155900D01*
X141924758Y-117200900D02*
X141450242Y-117200900D01*
%TO.C,C117*%
X90290000Y-89407836D02*
X90290000Y-89192164D01*
X91010000Y-89407836D02*
X91010000Y-89192164D01*
%TO.C,R89*%
X141924758Y-106155900D02*
X141450242Y-106155900D01*
X141924758Y-107200900D02*
X141450242Y-107200900D01*
%TO.C,C119*%
X99062164Y-88555000D02*
X99277836Y-88555000D01*
X99062164Y-89275000D02*
X99277836Y-89275000D01*
%TO.C,R101*%
X92805000Y-74022936D02*
X92805000Y-74477064D01*
X94275000Y-74022936D02*
X94275000Y-74477064D01*
%TO.C,R98*%
X99960000Y-67003641D02*
X99960000Y-66696359D01*
X100720000Y-67003641D02*
X100720000Y-66696359D01*
%TO.C,C128*%
X114299420Y-77440000D02*
X114580580Y-77440000D01*
X114299420Y-78460000D02*
X114580580Y-78460000D01*
%TO.C,C13*%
X177537836Y-88830000D02*
X177322164Y-88830000D01*
X177537836Y-89550000D02*
X177322164Y-89550000D01*
%TO.C,R77*%
X66762742Y-98057500D02*
X67237258Y-98057500D01*
X66762742Y-99102500D02*
X67237258Y-99102500D01*
%TO.C,R88*%
X141924758Y-114155900D02*
X141450242Y-114155900D01*
X141924758Y-115200900D02*
X141450242Y-115200900D01*
%TO.C,R112*%
X112305000Y-74522936D02*
X112305000Y-74977064D01*
X113775000Y-74522936D02*
X113775000Y-74977064D01*
%TO.C,C17*%
X177322164Y-90800000D02*
X177537836Y-90800000D01*
X177322164Y-91520000D02*
X177537836Y-91520000D01*
%TO.C,C9*%
X117772164Y-111240000D02*
X117987836Y-111240000D01*
X117772164Y-111960000D02*
X117987836Y-111960000D01*
%TO.C,C6*%
X162397164Y-74900000D02*
X162612836Y-74900000D01*
X162397164Y-75620000D02*
X162612836Y-75620000D01*
%TO.C,R78*%
X66762742Y-100057500D02*
X67237258Y-100057500D01*
X66762742Y-101102500D02*
X67237258Y-101102500D01*
%TO.C,R90*%
X141924758Y-104155900D02*
X141450242Y-104155900D01*
X141924758Y-105200900D02*
X141450242Y-105200900D01*
%TO.C,R97*%
X89260000Y-67003641D02*
X89260000Y-66696359D01*
X90020000Y-67003641D02*
X90020000Y-66696359D01*
%TO.C,C7*%
X162397164Y-76870000D02*
X162612836Y-76870000D01*
X162397164Y-77590000D02*
X162612836Y-77590000D01*
%TD*%
%LPC*%
D11*
%TO.C,J14*%
X118600000Y-74100000D03*
X107170000Y-74100000D03*
D12*
X117325000Y-80460000D03*
D13*
X116065000Y-83000000D03*
X114785000Y-80460000D03*
X113525000Y-83000000D03*
X112245000Y-80460000D03*
X110985000Y-83000000D03*
X109705000Y-80460000D03*
X108445000Y-83000000D03*
X119510000Y-69200000D03*
X116970000Y-69200000D03*
X108800000Y-69200000D03*
X106260000Y-69200000D03*
D14*
X120630000Y-77150000D03*
X105140000Y-77150000D03*
%TD*%
D15*
%TO.C,J11*%
X71900000Y-98580000D03*
D16*
X69900000Y-98580000D03*
X71900000Y-100580000D03*
X69900000Y-100580000D03*
X71900000Y-102580000D03*
X69900000Y-102580000D03*
X71900000Y-104580000D03*
X69900000Y-104580000D03*
X71900000Y-106580000D03*
X69900000Y-106580000D03*
X71900000Y-108580000D03*
X69900000Y-108580000D03*
X71900000Y-110580000D03*
X69900000Y-110580000D03*
X71900000Y-112580000D03*
X69900000Y-112580000D03*
X71900000Y-114580000D03*
X69900000Y-114580000D03*
X71900000Y-116580000D03*
X69900000Y-116580000D03*
%TD*%
D17*
%TO.C,J4*%
X129470000Y-78010000D03*
D18*
X131970000Y-78010000D03*
X131970000Y-76010000D03*
X129470000Y-76010000D03*
D19*
X124700000Y-73300000D03*
X136740000Y-73300000D03*
%TD*%
D20*
%TO.C,J9*%
X65200430Y-150466355D03*
X70200430Y-150466355D03*
X65200430Y-143466355D03*
X70200430Y-143466355D03*
%TD*%
D21*
%TO.C,J1*%
X44410000Y-97260000D03*
D22*
X41870000Y-94720000D03*
X41870000Y-99800000D03*
X46950000Y-94720000D03*
X46950000Y-99800000D03*
%TD*%
D20*
%TO.C,J6*%
X143320435Y-138266355D03*
X138320435Y-138266355D03*
X143320435Y-145266355D03*
X138320435Y-145266355D03*
%TD*%
%TO.C,J8*%
X65200430Y-135466355D03*
X70200430Y-135466355D03*
X65200430Y-128466355D03*
X70200430Y-128466355D03*
%TD*%
D15*
%TO.C,J12*%
X136787500Y-118678400D03*
D16*
X138787500Y-118678400D03*
X136787500Y-116678400D03*
X138787500Y-116678400D03*
X136787500Y-114678400D03*
X138787500Y-114678400D03*
X136787500Y-112678400D03*
X138787500Y-112678400D03*
X136787500Y-110678400D03*
X138787500Y-110678400D03*
X136787500Y-108678400D03*
X138787500Y-108678400D03*
X136787500Y-106678400D03*
X138787500Y-106678400D03*
X136787500Y-104678400D03*
X138787500Y-104678400D03*
X136787500Y-102678400D03*
X138787500Y-102678400D03*
X136787500Y-100678400D03*
X138787500Y-100678400D03*
%TD*%
D23*
%TO.C,U4*%
X100200000Y-177700000D03*
D24*
X107400000Y-177700000D03*
%TD*%
D20*
%TO.C,J7*%
X143320435Y-153266355D03*
X138320435Y-153266355D03*
X143320435Y-160266355D03*
X138320435Y-160266355D03*
%TD*%
%TO.C,J10*%
X65200430Y-165466355D03*
X70200430Y-165466355D03*
X65200430Y-158466355D03*
X70200430Y-158466355D03*
%TD*%
%TO.C,J5*%
X143320435Y-123266355D03*
X138320435Y-123266355D03*
X143320435Y-130266355D03*
X138320435Y-130266355D03*
%TD*%
D11*
%TO.C,J13*%
X99385000Y-74060000D03*
X87955000Y-74060000D03*
D12*
X98110000Y-80420000D03*
D13*
X96850000Y-82960000D03*
X95570000Y-80420000D03*
X94310000Y-82960000D03*
X93030000Y-80420000D03*
X91770000Y-82960000D03*
X90490000Y-80420000D03*
X89230000Y-82960000D03*
X100295000Y-69160000D03*
X97755000Y-69160000D03*
X89585000Y-69160000D03*
X87045000Y-69160000D03*
D14*
X101415000Y-77110000D03*
X85925000Y-77110000D03*
%TD*%
D25*
%TO.C,C10*%
X132885000Y-89250000D03*
X133525000Y-89250000D03*
%TD*%
D26*
%TO.C,C123*%
X92940000Y-78450000D03*
X91390000Y-78450000D03*
%TD*%
D25*
%TO.C,C5*%
X159525000Y-82150000D03*
X160165000Y-82150000D03*
%TD*%
D27*
%TO.C,U9*%
X162095000Y-89362500D03*
X163365000Y-89362500D03*
X164635000Y-89362500D03*
X165905000Y-89362500D03*
X165905000Y-96537500D03*
X164635000Y-96537500D03*
X163365000Y-96537500D03*
X162095000Y-96537500D03*
%TD*%
D28*
%TO.C,C4*%
X160165000Y-80400000D03*
X159525000Y-80400000D03*
%TD*%
D25*
%TO.C,C18*%
X174450000Y-92580000D03*
X175090000Y-92580000D03*
%TD*%
D29*
%TO.C,R9*%
X129450000Y-80840000D03*
X129450000Y-81860000D03*
%TD*%
D30*
%TO.C,R79*%
X66175000Y-102580000D03*
X67825000Y-102580000D03*
%TD*%
D31*
%TO.C,R99*%
X97740000Y-67360000D03*
X97740000Y-66340000D03*
%TD*%
D32*
%TO.C,R57*%
X47100000Y-164300000D03*
X53025000Y-164300000D03*
%TD*%
D33*
%TO.C,C28*%
X96237500Y-161375000D03*
D34*
X96237500Y-158875000D03*
%TD*%
D35*
%TO.C,R86*%
X142512500Y-118678400D03*
X140862500Y-118678400D03*
%TD*%
D28*
%TO.C,C3*%
X160165000Y-78650000D03*
X159525000Y-78650000D03*
%TD*%
D30*
%TO.C,R80*%
X66175000Y-110580000D03*
X67825000Y-110580000D03*
%TD*%
D25*
%TO.C,C26*%
X183810000Y-89600000D03*
X184450000Y-89600000D03*
%TD*%
D35*
%TO.C,R91*%
X142512500Y-102628400D03*
X140862500Y-102628400D03*
%TD*%
D36*
%TO.C,C120*%
X98690000Y-87950000D03*
X99650000Y-87950000D03*
%TD*%
D37*
%TO.C,FB4*%
X91650000Y-88815000D03*
X91650000Y-89785000D03*
%TD*%
D38*
%TO.C,C24*%
X187980000Y-87880000D03*
X187980000Y-88520000D03*
%TD*%
D39*
%TO.C,C15*%
X176980000Y-95070000D03*
X176980000Y-96030000D03*
%TD*%
D36*
%TO.C,C20*%
X176950000Y-93130000D03*
X177910000Y-93130000D03*
%TD*%
D30*
%TO.C,R81*%
X66175000Y-112580000D03*
X67825000Y-112580000D03*
%TD*%
D25*
%TO.C,C12*%
X132885000Y-87500000D03*
X133525000Y-87500000D03*
%TD*%
D36*
%TO.C,C11*%
X149680000Y-103810000D03*
X150640000Y-103810000D03*
%TD*%
D39*
%TO.C,C114*%
X92650000Y-88820000D03*
X92650000Y-89780000D03*
%TD*%
%TO.C,C19*%
X178950000Y-95070000D03*
X178950000Y-96030000D03*
%TD*%
D26*
%TO.C,C133*%
X112215000Y-77950000D03*
X110665000Y-77950000D03*
%TD*%
D40*
%TO.C,C116*%
X94460589Y-91739411D03*
X95139411Y-91060589D03*
%TD*%
D28*
%TO.C,C27*%
X184450000Y-91350000D03*
X183810000Y-91350000D03*
%TD*%
D41*
%TO.C,C115*%
X92622500Y-87846250D03*
X91662500Y-87846250D03*
%TD*%
D42*
%TO.C,C22*%
X130440000Y-81840000D03*
X130440000Y-80880000D03*
%TD*%
D31*
%TO.C,R96*%
X87040000Y-67360000D03*
X87040000Y-66340000D03*
%TD*%
D32*
%TO.C,R39*%
X47137500Y-159700000D03*
X53062500Y-159700000D03*
%TD*%
D43*
%TO.C,C118*%
X94340000Y-78450000D03*
X95890000Y-78450000D03*
%TD*%
D28*
%TO.C,C2*%
X160165000Y-76900000D03*
X159525000Y-76900000D03*
%TD*%
D30*
%TO.C,R82*%
X66175000Y-114630000D03*
X67825000Y-114630000D03*
%TD*%
D28*
%TO.C,C8*%
X117990000Y-113460000D03*
X117350000Y-113460000D03*
%TD*%
D44*
%TO.C,FB1*%
X149695000Y-99860000D03*
X150665000Y-99860000D03*
%TD*%
D45*
%TO.C,D3*%
X106450000Y-171350000D03*
X102150000Y-171350000D03*
%TD*%
D35*
%TO.C,R87*%
X142512500Y-116678400D03*
X140862500Y-116678400D03*
%TD*%
D25*
%TO.C,C16*%
X174450000Y-90830000D03*
X175090000Y-90830000D03*
%TD*%
D42*
%TO.C,C117*%
X90650000Y-89780000D03*
X90650000Y-88820000D03*
%TD*%
D35*
%TO.C,R89*%
X142512500Y-106678400D03*
X140862500Y-106678400D03*
%TD*%
D36*
%TO.C,C119*%
X98690000Y-88915000D03*
X99650000Y-88915000D03*
%TD*%
D46*
%TO.C,R101*%
X93540000Y-73337500D03*
X93540000Y-75162500D03*
%TD*%
D31*
%TO.C,R98*%
X100340000Y-67360000D03*
X100340000Y-66340000D03*
%TD*%
D25*
%TO.C,C21*%
X174450000Y-94330000D03*
X175090000Y-94330000D03*
%TD*%
D43*
%TO.C,C128*%
X113665000Y-77950000D03*
X115215000Y-77950000D03*
%TD*%
D41*
%TO.C,C13*%
X177910000Y-89190000D03*
X176950000Y-89190000D03*
%TD*%
D30*
%TO.C,R77*%
X66175000Y-98580000D03*
X67825000Y-98580000D03*
%TD*%
D35*
%TO.C,R88*%
X142512500Y-114678400D03*
X140862500Y-114678400D03*
%TD*%
D46*
%TO.C,R112*%
X113040000Y-73837500D03*
X113040000Y-75662500D03*
%TD*%
D25*
%TO.C,C1*%
X159525000Y-75150000D03*
X160165000Y-75150000D03*
%TD*%
D36*
%TO.C,C17*%
X176950000Y-91160000D03*
X177910000Y-91160000D03*
%TD*%
%TO.C,C9*%
X117400000Y-111600000D03*
X118360000Y-111600000D03*
%TD*%
D25*
%TO.C,C14*%
X174450000Y-89080000D03*
X175090000Y-89080000D03*
%TD*%
D47*
%TO.C,C23*%
X186230000Y-88520000D03*
X186230000Y-87880000D03*
%TD*%
D36*
%TO.C,C6*%
X162025000Y-75260000D03*
X162985000Y-75260000D03*
%TD*%
D30*
%TO.C,R78*%
X66175000Y-100580000D03*
X67825000Y-100580000D03*
%TD*%
D35*
%TO.C,R90*%
X142512500Y-104678400D03*
X140862500Y-104678400D03*
%TD*%
D31*
%TO.C,R97*%
X89640000Y-67360000D03*
X89640000Y-66340000D03*
%TD*%
D28*
%TO.C,C25*%
X184450000Y-87850000D03*
X183810000Y-87850000D03*
%TD*%
D36*
%TO.C,C7*%
X162025000Y-77230000D03*
X162985000Y-77230000D03*
%TD*%
%LPD*%
M02*
