%TF.GenerationSoftware,KiCad,Pcbnew,9.0.2-9-g92f6307ebb*%
%TF.CreationDate,2025-06-20T01:42:08+08:00*%
%TF.ProjectId,HPM5E31_ECatDualFOC,48504d35-4533-4315-9f45-436174447561,rev?*%
%TF.SameCoordinates,Original*%
%TF.FileFunction,Soldermask,Top*%
%TF.FilePolarity,Negative*%
%FSLAX46Y46*%
G04 Gerber Fmt 4.6, Leading zero omitted, Abs format (unit mm)*
G04 Created by KiCad (PCBNEW 9.0.2-9-g92f6307ebb) date 2025-06-20 01:42:08*
%MOMM*%
%LPD*%
G01*
G04 APERTURE LIST*
G04 Aperture macros list*
%AMRoundRect*
0 Rectangle with rounded corners*
0 $1 Rounding radius*
0 $2 $3 $4 $5 $6 $7 $8 $9 X,Y pos of 4 corners*
0 Add a 4 corners polygon primitive as box body*
4,1,4,$2,$3,$4,$5,$6,$7,$8,$9,$2,$3,0*
0 Add four circle primitives for the rounded corners*
1,1,$1+$1,$2,$3*
1,1,$1+$1,$4,$5*
1,1,$1+$1,$6,$7*
1,1,$1+$1,$8,$9*
0 Add four rect primitives between the rounded corners*
20,1,$1+$1,$2,$3,$4,$5,0*
20,1,$1+$1,$4,$5,$6,$7,0*
20,1,$1+$1,$6,$7,$8,$9,0*
20,1,$1+$1,$8,$9,$2,$3,0*%
%AMRotRect*
0 Rectangle, with rotation*
0 The origin of the aperture is its center*
0 $1 length*
0 $2 width*
0 $3 Rotation angle, in degrees counterclockwise*
0 Add horizontal line*
21,1,$1,$2,0,0,$3*%
%AMFreePoly0*
4,1,9,2.100000,-2.000000,2.350000,-2.000000,2.350000,-3.500000,-2.350000,-3.500000,-2.350000,-2.000000,-2.100000,-2.000000,-2.100000,1.100000,2.100000,1.100000,2.100000,-2.000000,2.100000,-2.000000,$1*%
G04 Aperture macros list end*
%ADD10C,0.150000*%
%ADD11RoundRect,0.135000X0.185000X-0.135000X0.185000X0.135000X-0.185000X0.135000X-0.185000X-0.135000X0*%
%ADD12RoundRect,0.100000X0.100000X-0.637500X0.100000X0.637500X-0.100000X0.637500X-0.100000X-0.637500X0*%
%ADD13RoundRect,0.112500X0.187500X0.112500X-0.187500X0.112500X-0.187500X-0.112500X0.187500X-0.112500X0*%
%ADD14RoundRect,0.140000X-0.140000X-0.170000X0.140000X-0.170000X0.140000X0.170000X-0.140000X0.170000X0*%
%ADD15RoundRect,0.150000X-0.512500X-0.150000X0.512500X-0.150000X0.512500X0.150000X-0.512500X0.150000X0*%
%ADD16RoundRect,0.250500X0.499500X0.499500X-0.499500X0.499500X-0.499500X-0.499500X0.499500X-0.499500X0*%
%ADD17C,1.500000*%
%ADD18C,2.500000*%
%ADD19RoundRect,0.070000X-0.355000X-0.070000X0.355000X-0.070000X0.355000X0.070000X-0.355000X0.070000X0*%
%ADD20R,0.280000X0.700000*%
%ADD21R,1.650000X2.400000*%
%ADD22R,1.200000X1.200000*%
%ADD23C,1.200000*%
%ADD24RoundRect,0.140000X0.170000X-0.140000X0.170000X0.140000X-0.170000X0.140000X-0.170000X-0.140000X0*%
%ADD25RoundRect,0.250000X0.650000X-0.325000X0.650000X0.325000X-0.650000X0.325000X-0.650000X-0.325000X0*%
%ADD26RoundRect,0.135000X-0.185000X0.135000X-0.185000X-0.135000X0.185000X-0.135000X0.185000X0.135000X0*%
%ADD27RoundRect,0.225000X1.275000X-0.525000X1.275000X0.525000X-1.275000X0.525000X-1.275000X-0.525000X0*%
%ADD28RoundRect,0.225000X1.475000X-0.525000X1.475000X0.525000X-1.475000X0.525000X-1.475000X-0.525000X0*%
%ADD29RoundRect,0.135000X-0.135000X-0.185000X0.135000X-0.185000X0.135000X0.185000X-0.135000X0.185000X0*%
%ADD30RoundRect,0.250000X0.250000X0.475000X-0.250000X0.475000X-0.250000X-0.475000X0.250000X-0.475000X0*%
%ADD31RoundRect,0.140000X0.140000X0.170000X-0.140000X0.170000X-0.140000X-0.170000X0.140000X-0.170000X0*%
%ADD32RoundRect,0.250000X-0.475000X0.250000X-0.475000X-0.250000X0.475000X-0.250000X0.475000X0.250000X0*%
%ADD33RoundRect,0.135000X0.135000X0.185000X-0.135000X0.185000X-0.135000X-0.185000X0.135000X-0.185000X0*%
%ADD34RoundRect,0.250000X0.250000X0.900000X-0.250000X0.900000X-0.250000X-0.900000X0.250000X-0.900000X0*%
%ADD35RoundRect,0.250000X0.250000X1.000000X-0.250000X1.000000X-0.250000X-1.000000X0.250000X-1.000000X0*%
%ADD36RoundRect,0.185000X-0.185000X1.115000X-0.185000X-1.115000X0.185000X-1.115000X0.185000X1.115000X0*%
%ADD37RoundRect,0.140000X-0.170000X0.140000X-0.170000X-0.140000X0.170000X-0.140000X0.170000X0.140000X0*%
%ADD38RoundRect,0.100000X-0.130000X-0.100000X0.130000X-0.100000X0.130000X0.100000X-0.130000X0.100000X0*%
%ADD39RoundRect,0.225000X0.375000X-0.225000X0.375000X0.225000X-0.375000X0.225000X-0.375000X-0.225000X0*%
%ADD40RoundRect,0.150000X-0.825000X-0.150000X0.825000X-0.150000X0.825000X0.150000X-0.825000X0.150000X0*%
%ADD41RoundRect,0.250000X0.850000X-0.375000X0.850000X0.375000X-0.850000X0.375000X-0.850000X-0.375000X0*%
%ADD42RoundRect,0.250000X-0.250000X-0.475000X0.250000X-0.475000X0.250000X0.475000X-0.250000X0.475000X0*%
%ADD43FreePoly0,90.000000*%
%ADD44RoundRect,0.175000X0.400000X-0.175000X0.400000X0.175000X-0.400000X0.175000X-0.400000X-0.175000X0*%
%ADD45RoundRect,0.250000X-0.650000X0.325000X-0.650000X-0.325000X0.650000X-0.325000X0.650000X0.325000X0*%
%ADD46R,0.625000X0.250000*%
%ADD47R,0.700000X0.450000*%
%ADD48R,0.575000X0.450000*%
%ADD49RoundRect,0.150000X0.150000X0.700000X-0.150000X0.700000X-0.150000X-0.700000X0.150000X-0.700000X0*%
%ADD50RoundRect,0.250000X0.250000X1.100000X-0.250000X1.100000X-0.250000X-1.100000X0.250000X-1.100000X0*%
%ADD51FreePoly0,270.000000*%
%ADD52RoundRect,0.175000X-0.400000X0.175000X-0.400000X-0.175000X0.400000X-0.175000X0.400000X0.175000X0*%
%ADD53RoundRect,0.225000X-1.275000X0.525000X-1.275000X-0.525000X1.275000X-0.525000X1.275000X0.525000X0*%
%ADD54RoundRect,0.225000X-1.475000X0.525000X-1.475000X-0.525000X1.475000X-0.525000X1.475000X0.525000X0*%
%ADD55RoundRect,0.070000X0.355000X0.070000X-0.355000X0.070000X-0.355000X-0.070000X0.355000X-0.070000X0*%
%ADD56R,1.700000X1.700000*%
%ADD57C,1.700000*%
%ADD58C,3.500000*%
%ADD59RoundRect,0.112500X-0.187500X-0.112500X0.187500X-0.112500X0.187500X0.112500X-0.187500X0.112500X0*%
%ADD60RoundRect,0.062500X-0.309359X0.220971X0.220971X-0.309359X0.309359X-0.220971X-0.220971X0.309359X0*%
%ADD61RoundRect,0.062500X-0.309359X-0.220971X-0.220971X-0.309359X0.309359X0.220971X0.220971X0.309359X0*%
%ADD62RotRect,3.100000X3.100000X315.000000*%
%ADD63RoundRect,0.225000X0.225000X0.250000X-0.225000X0.250000X-0.225000X-0.250000X0.225000X-0.250000X0*%
%ADD64RoundRect,0.075000X-0.362500X-0.075000X0.362500X-0.075000X0.362500X0.075000X-0.362500X0.075000X0*%
%ADD65R,1.600000X2.400000*%
%ADD66RoundRect,0.150000X0.675000X0.150000X-0.675000X0.150000X-0.675000X-0.150000X0.675000X-0.150000X0*%
%ADD67RoundRect,0.100000X-0.100000X0.130000X-0.100000X-0.130000X0.100000X-0.130000X0.100000X0.130000X0*%
%ADD68RoundRect,0.212500X0.787500X-0.212500X0.787500X0.212500X-0.787500X0.212500X-0.787500X-0.212500X0*%
%ADD69RoundRect,0.250000X0.362500X1.425000X-0.362500X1.425000X-0.362500X-1.425000X0.362500X-1.425000X0*%
%ADD70RoundRect,0.025500X-0.229500X-0.354500X0.229500X-0.354500X0.229500X0.354500X-0.229500X0.354500X0*%
%ADD71RoundRect,0.087500X-0.250000X-0.087500X0.250000X-0.087500X0.250000X0.087500X-0.250000X0.087500X0*%
%ADD72O,2.200000X1.400000*%
%ADD73RoundRect,0.200000X-0.200000X-0.275000X0.200000X-0.275000X0.200000X0.275000X-0.200000X0.275000X0*%
%ADD74RoundRect,0.225000X-0.225000X-0.375000X0.225000X-0.375000X0.225000X0.375000X-0.225000X0.375000X0*%
%ADD75C,2.050000*%
%ADD76C,2.250000*%
%ADD77RoundRect,0.225000X-0.375000X0.225000X-0.375000X-0.225000X0.375000X-0.225000X0.375000X0.225000X0*%
%ADD78RoundRect,0.212500X-0.212500X-0.787500X0.212500X-0.787500X0.212500X0.787500X-0.212500X0.787500X0*%
%ADD79RoundRect,0.100000X0.100000X-0.130000X0.100000X0.130000X-0.100000X0.130000X-0.100000X-0.130000X0*%
%ADD80RoundRect,0.050000X-0.070000X0.250000X-0.070000X-0.250000X0.070000X-0.250000X0.070000X0.250000X0*%
%ADD81RoundRect,0.050000X0.250000X0.070000X-0.250000X0.070000X-0.250000X-0.070000X0.250000X-0.070000X0*%
%ADD82RoundRect,0.050000X0.975000X1.475000X-0.975000X1.475000X-0.975000X-1.475000X0.975000X-1.475000X0*%
%ADD83RoundRect,0.100000X-0.100000X0.637500X-0.100000X-0.637500X0.100000X-0.637500X0.100000X0.637500X0*%
%ADD84RoundRect,0.250000X0.312500X0.625000X-0.312500X0.625000X-0.312500X-0.625000X0.312500X-0.625000X0*%
%ADD85RoundRect,0.050000X-0.375000X-0.050000X0.375000X-0.050000X0.375000X0.050000X-0.375000X0.050000X0*%
%ADD86RoundRect,0.050000X-0.050000X-0.375000X0.050000X-0.375000X0.050000X0.375000X-0.050000X0.375000X0*%
%ADD87R,1.650000X1.650000*%
%ADD88RoundRect,0.250000X-0.362500X-1.425000X0.362500X-1.425000X0.362500X1.425000X-0.362500X1.425000X0*%
%ADD89R,0.500000X0.600000*%
%ADD90RoundRect,0.225000X0.225000X0.375000X-0.225000X0.375000X-0.225000X-0.375000X0.225000X-0.375000X0*%
%ADD91RoundRect,0.147500X-0.147500X-0.172500X0.147500X-0.172500X0.147500X0.172500X-0.147500X0.172500X0*%
%ADD92RoundRect,0.150000X-0.700000X0.150000X-0.700000X-0.150000X0.700000X-0.150000X0.700000X0.150000X0*%
%ADD93RoundRect,0.250000X-1.100000X0.250000X-1.100000X-0.250000X1.100000X-0.250000X1.100000X0.250000X0*%
%ADD94RoundRect,0.150000X-0.650000X-0.150000X0.650000X-0.150000X0.650000X0.150000X-0.650000X0.150000X0*%
%ADD95R,2.410000X3.100000*%
%ADD96RoundRect,0.150000X0.700000X-0.150000X0.700000X0.150000X-0.700000X0.150000X-0.700000X-0.150000X0*%
%ADD97RoundRect,0.250000X1.100000X-0.250000X1.100000X0.250000X-1.100000X0.250000X-1.100000X-0.250000X0*%
%ADD98RoundRect,1.500000X-1.500000X-1.500000X1.500000X-1.500000X1.500000X1.500000X-1.500000X1.500000X0*%
%ADD99C,6.000000*%
%ADD100RoundRect,0.190000X0.190000X-0.445000X0.190000X0.445000X-0.190000X0.445000X-0.190000X-0.445000X0*%
%ADD101RoundRect,0.250000X0.325000X0.650000X-0.325000X0.650000X-0.325000X-0.650000X0.325000X-0.650000X0*%
%ADD102RoundRect,0.062500X0.062500X-0.325000X0.062500X0.325000X-0.062500X0.325000X-0.062500X-0.325000X0*%
%ADD103R,1.200000X0.600000*%
%ADD104RoundRect,0.250000X1.600000X-0.300000X1.600000X0.300000X-1.600000X0.300000X-1.600000X-0.300000X0*%
%ADD105C,0.400000*%
%ADD106RoundRect,0.050000X0.070000X-0.250000X0.070000X0.250000X-0.070000X0.250000X-0.070000X-0.250000X0*%
%ADD107RoundRect,0.050000X-0.250000X-0.070000X0.250000X-0.070000X0.250000X0.070000X-0.250000X0.070000X0*%
%ADD108RoundRect,0.050000X-0.975000X-1.475000X0.975000X-1.475000X0.975000X1.475000X-0.975000X1.475000X0*%
%ADD109RoundRect,0.250000X0.550000X-0.550000X0.550000X0.550000X-0.550000X0.550000X-0.550000X-0.550000X0*%
%ADD110C,1.600000*%
G04 APERTURE END LIST*
D10*
X63974000Y-144426145D02*
X71224000Y-144426145D01*
X71224000Y-149426145D01*
X63974000Y-149426145D01*
X63974000Y-144426145D01*
G36*
X63974000Y-144426145D02*
G01*
X71224000Y-144426145D01*
X71224000Y-149426145D01*
X63974000Y-149426145D01*
X63974000Y-144426145D01*
G37*
X137296865Y-139306565D02*
X144546865Y-139306565D01*
X144546865Y-144306565D01*
X137296865Y-144306565D01*
X137296865Y-139306565D01*
G36*
X137296865Y-139306565D02*
G01*
X144546865Y-139306565D01*
X144546865Y-144306565D01*
X137296865Y-144306565D01*
X137296865Y-139306565D01*
G37*
X137296865Y-154306565D02*
X144546865Y-154306565D01*
X144546865Y-159306565D01*
X137296865Y-159306565D01*
X137296865Y-154306565D01*
G36*
X137296865Y-154306565D02*
G01*
X144546865Y-154306565D01*
X144546865Y-159306565D01*
X137296865Y-159306565D01*
X137296865Y-154306565D01*
G37*
X63974000Y-159426145D02*
X71224000Y-159426145D01*
X71224000Y-164426145D01*
X63974000Y-164426145D01*
X63974000Y-159426145D01*
G36*
X63974000Y-159426145D02*
G01*
X71224000Y-159426145D01*
X71224000Y-164426145D01*
X63974000Y-164426145D01*
X63974000Y-159426145D01*
G37*
X137296865Y-124306565D02*
X144546865Y-124306565D01*
X144546865Y-129306565D01*
X137296865Y-129306565D01*
X137296865Y-124306565D01*
G36*
X137296865Y-124306565D02*
G01*
X144546865Y-124306565D01*
X144546865Y-129306565D01*
X137296865Y-129306565D01*
X137296865Y-124306565D01*
G37*
X63974000Y-129426145D02*
X71224000Y-129426145D01*
X71224000Y-134426145D01*
X63974000Y-134426145D01*
X63974000Y-129426145D01*
G36*
X63974000Y-129426145D02*
G01*
X71224000Y-129426145D01*
X71224000Y-134426145D01*
X63974000Y-134426145D01*
X63974000Y-129426145D01*
G37*
D11*
%TO.C,R76*%
X175860000Y-117320000D03*
X175860000Y-116300000D03*
%TD*%
D12*
%TO.C,U22*%
X102045000Y-121662500D03*
X102695000Y-121662500D03*
X103345000Y-121662500D03*
X103995000Y-121662500D03*
X103995000Y-115937500D03*
X103345000Y-115937500D03*
X102695000Y-115937500D03*
X102045000Y-115937500D03*
%TD*%
D13*
%TO.C,D25*%
X124475000Y-174980000D03*
X122375000Y-174980000D03*
%TD*%
D14*
%TO.C,C139*%
X154767500Y-42800000D03*
X155727500Y-42800000D03*
%TD*%
D15*
%TO.C,U8*%
X48862500Y-78875000D03*
X48862500Y-80775000D03*
X51137500Y-79825000D03*
%TD*%
D14*
%TO.C,C59*%
X91820000Y-110500000D03*
X92780000Y-110500000D03*
%TD*%
D16*
%TO.C,J14*%
X117325000Y-80460000D03*
D17*
X116065000Y-83000000D03*
X114785000Y-80460000D03*
X113525000Y-83000000D03*
X112245000Y-80460000D03*
X110985000Y-83000000D03*
X109705000Y-80460000D03*
X108445000Y-83000000D03*
X119510000Y-69200000D03*
X116970000Y-69200000D03*
X108800000Y-69200000D03*
X106260000Y-69200000D03*
D18*
X120630000Y-77150000D03*
X105140000Y-77150000D03*
%TD*%
D19*
%TO.C,U17*%
X89175430Y-132966355D03*
X89175430Y-133466355D03*
X89175430Y-133966355D03*
X89175430Y-134466355D03*
X89175430Y-134966355D03*
X92125430Y-134966355D03*
X92125430Y-134466355D03*
X92125430Y-133966355D03*
X92125430Y-133466355D03*
X92125430Y-132966355D03*
D20*
X90400430Y-132416355D03*
X90400430Y-135516355D03*
D21*
X90650430Y-133966355D03*
D20*
X90900430Y-132416355D03*
X90900430Y-135516355D03*
%TD*%
D22*
%TO.C,J11*%
X71900000Y-98580000D03*
D23*
X69900000Y-98580000D03*
X71900000Y-100580000D03*
X69900000Y-100580000D03*
X71900000Y-102580000D03*
X69900000Y-102580000D03*
X71900000Y-104580000D03*
X69900000Y-104580000D03*
X71900000Y-106580000D03*
X69900000Y-106580000D03*
X71900000Y-108580000D03*
X69900000Y-108580000D03*
X71900000Y-110580000D03*
X69900000Y-110580000D03*
X71900000Y-112580000D03*
X69900000Y-112580000D03*
X71900000Y-114580000D03*
X69900000Y-114580000D03*
X71900000Y-116580000D03*
X69900000Y-116580000D03*
%TD*%
D24*
%TO.C,C52*%
X120620435Y-124759066D03*
X120620435Y-123799066D03*
%TD*%
D14*
%TO.C,C72*%
X88940430Y-146316355D03*
X89900430Y-146316355D03*
%TD*%
D25*
%TO.C,C68*%
X82750430Y-130926355D03*
X82750430Y-127976355D03*
%TD*%
D26*
%TO.C,R33*%
X120620435Y-155706355D03*
X120620435Y-156726355D03*
%TD*%
D27*
%TO.C,U26*%
X137450000Y-174900000D03*
X137450000Y-172900000D03*
D28*
X145150000Y-170700000D03*
X145150000Y-177100000D03*
%TD*%
D29*
%TO.C,R5*%
X71090000Y-84900000D03*
X72110000Y-84900000D03*
%TD*%
%TO.C,R22*%
X25920000Y-86330000D03*
X26940000Y-86330000D03*
%TD*%
D11*
%TO.C,R36*%
X107600000Y-113910000D03*
X107600000Y-112890000D03*
%TD*%
D30*
%TO.C,C47*%
X111537500Y-162975000D03*
X109637500Y-162975000D03*
%TD*%
D14*
%TO.C,C135*%
X49570000Y-122555000D03*
X50530000Y-122555000D03*
%TD*%
D31*
%TO.C,C60*%
X119580435Y-157416355D03*
X118620435Y-157416355D03*
%TD*%
D32*
%TO.C,C32*%
X102037500Y-155525000D03*
X102037500Y-157425000D03*
%TD*%
D33*
%TO.C,R92*%
X122297500Y-104628400D03*
X121277500Y-104628400D03*
%TD*%
D14*
%TO.C,C70*%
X202640000Y-117200000D03*
X203600000Y-117200000D03*
%TD*%
D34*
%TO.C,J2*%
X70300000Y-68725000D03*
X68800000Y-68725000D03*
X67300000Y-68725000D03*
X65800000Y-68725000D03*
D35*
X72300000Y-64725000D03*
X63800000Y-64725000D03*
%TD*%
D36*
%TO.C,J3*%
X65700000Y-76550000D03*
X65700000Y-72550000D03*
X66970000Y-76550000D03*
X66970000Y-72550000D03*
X68240000Y-76550000D03*
X68240000Y-72550000D03*
X69510000Y-76550000D03*
X69510000Y-72550000D03*
X70780000Y-76550000D03*
X70780000Y-72550000D03*
%TD*%
D37*
%TO.C,C79*%
X87900430Y-163973644D03*
X87900430Y-164933644D03*
%TD*%
D38*
%TO.C,C44*%
X53480000Y-77175000D03*
X54120000Y-77175000D03*
%TD*%
D11*
%TO.C,R104*%
X102650000Y-88060000D03*
X102650000Y-87040000D03*
%TD*%
D30*
%TO.C,C37*%
X99387500Y-149975000D03*
X97487500Y-149975000D03*
%TD*%
D14*
%TO.C,C80*%
X202640000Y-121140000D03*
X203600000Y-121140000D03*
%TD*%
D39*
%TO.C,D4*%
X110837500Y-158825000D03*
X110837500Y-155525000D03*
%TD*%
D26*
%TO.C,R59*%
X125500000Y-174470000D03*
X125500000Y-175490000D03*
%TD*%
D40*
%TO.C,U43*%
X26275000Y-125500000D03*
X26275000Y-126770000D03*
X26275000Y-128040000D03*
X26275000Y-129310000D03*
X31225000Y-129310000D03*
X31225000Y-128040000D03*
X31225000Y-126770000D03*
X31225000Y-125500000D03*
%TD*%
D26*
%TO.C,R68*%
X178860000Y-112510000D03*
X178860000Y-113530000D03*
%TD*%
D11*
%TO.C,R74*%
X176860000Y-111610000D03*
X176860000Y-110590000D03*
%TD*%
D41*
%TO.C,L3*%
X101637500Y-151650000D03*
X101637500Y-149500000D03*
%TD*%
D26*
%TO.C,R62*%
X85300000Y-175910000D03*
X85300000Y-176930000D03*
%TD*%
D12*
%TO.C,U23*%
X102050000Y-130425000D03*
X102700000Y-130425000D03*
X103350000Y-130425000D03*
X104000000Y-130425000D03*
X104000000Y-124700000D03*
X103350000Y-124700000D03*
X102700000Y-124700000D03*
X102050000Y-124700000D03*
%TD*%
D26*
%TO.C,R69*%
X177860000Y-116300000D03*
X177860000Y-117320000D03*
%TD*%
D14*
%TO.C,C126*%
X137770000Y36800000D03*
X138730000Y36800000D03*
%TD*%
D42*
%TO.C,C35*%
X101787500Y-153775000D03*
X103687500Y-153775000D03*
%TD*%
D43*
%TO.C,Q4*%
X130720435Y-147116355D03*
D44*
X127995435Y-149021355D03*
X127995435Y-145211355D03*
X127995435Y-146481355D03*
X127995435Y-147751355D03*
%TD*%
D33*
%TO.C,R11*%
X106157500Y-164125000D03*
X105137500Y-164125000D03*
%TD*%
D14*
%TO.C,C137*%
X154767500Y-38860000D03*
X155727500Y-38860000D03*
%TD*%
%TO.C,C81*%
X51420000Y-60750000D03*
X52380000Y-60750000D03*
%TD*%
D45*
%TO.C,C51*%
X125770435Y-127806355D03*
X125770435Y-130756355D03*
%TD*%
D46*
%TO.C,D2*%
X71450000Y-91050000D03*
X71450000Y-91550000D03*
D47*
X71487500Y-92050000D03*
D46*
X71450000Y-92550000D03*
X71450000Y-93050000D03*
X72225000Y-93050000D03*
X72225000Y-92550000D03*
D48*
X72250000Y-92050000D03*
D46*
X72225000Y-91550000D03*
X72225000Y-91050000D03*
%TD*%
D49*
%TO.C,J15*%
X81425000Y-67250000D03*
X80175000Y-67250000D03*
X78925000Y-67250000D03*
X77675000Y-67250000D03*
D50*
X83275000Y-64050000D03*
X75825000Y-64050000D03*
%TD*%
D51*
%TO.C,Q12*%
X77800430Y-156616355D03*
D52*
X80525430Y-154711355D03*
X80525430Y-158521355D03*
X80525430Y-157251355D03*
X80525430Y-155981355D03*
%TD*%
D14*
%TO.C,C76*%
X51420000Y-56810000D03*
X52380000Y-56810000D03*
%TD*%
D53*
%TO.C,U29*%
X70900000Y-173600000D03*
X70900000Y-175600000D03*
D54*
X63200000Y-177800000D03*
X63200000Y-171400000D03*
%TD*%
D33*
%TO.C,R47*%
X83070430Y-150416355D03*
X82050430Y-150416355D03*
%TD*%
D55*
%TO.C,U14*%
X119345435Y-155766355D03*
X119345435Y-155266355D03*
X119345435Y-154766355D03*
X119345435Y-154266355D03*
X119345435Y-153766355D03*
X116395435Y-153766355D03*
X116395435Y-154266355D03*
X116395435Y-154766355D03*
X116395435Y-155266355D03*
X116395435Y-155766355D03*
D20*
X118120435Y-156316355D03*
X118120435Y-153216355D03*
D21*
X117870435Y-154766355D03*
D20*
X117620435Y-156316355D03*
X117620435Y-153216355D03*
%TD*%
D14*
%TO.C,C136*%
X35070000Y-122555000D03*
X36030000Y-122555000D03*
%TD*%
%TO.C,C83*%
X91900000Y-117300000D03*
X92860000Y-117300000D03*
%TD*%
%TO.C,C48*%
X28840000Y-84330000D03*
X29800000Y-84330000D03*
%TD*%
%TO.C,C124*%
X137770000Y40740000D03*
X138730000Y40740000D03*
%TD*%
D56*
%TO.C,J4*%
X129470000Y-78010000D03*
D57*
X131970000Y-78010000D03*
X131970000Y-76010000D03*
X129470000Y-76010000D03*
D58*
X124700000Y-73300000D03*
X136740000Y-73300000D03*
%TD*%
D26*
%TO.C,R63*%
X85350000Y-173980000D03*
X85350000Y-175000000D03*
%TD*%
D43*
%TO.C,Q9*%
X77600430Y-148066355D03*
D44*
X74875430Y-149971355D03*
X74875430Y-146161355D03*
X74875430Y-147431355D03*
X74875430Y-148701355D03*
%TD*%
D29*
%TO.C,R8*%
X71090000Y-88880000D03*
X72110000Y-88880000D03*
%TD*%
D45*
%TO.C,C56*%
X125770435Y-142806355D03*
X125770435Y-145756355D03*
%TD*%
D29*
%TO.C,R7*%
X71090000Y-86890000D03*
X72110000Y-86890000D03*
%TD*%
D37*
%TO.C,C53*%
X110600000Y-112920000D03*
X110600000Y-113880000D03*
%TD*%
D33*
%TO.C,R45*%
X86224000Y-124973644D03*
X85204000Y-124973644D03*
%TD*%
D59*
%TO.C,D14*%
X124370435Y-164166355D03*
X126470435Y-164166355D03*
%TD*%
D60*
%TO.C,U40*%
X116477728Y-86232350D03*
X116124175Y-86585904D03*
X115770621Y-86939457D03*
X115417068Y-87293011D03*
X115063515Y-87646564D03*
X114709961Y-88000117D03*
X114356408Y-88353671D03*
X114002854Y-88707224D03*
D61*
X114002854Y-89679496D03*
X114356408Y-90033049D03*
X114709961Y-90386603D03*
X115063515Y-90740156D03*
X115417068Y-91093709D03*
X115770621Y-91447263D03*
X116124175Y-91800816D03*
X116477728Y-92154370D03*
D60*
X117450000Y-92154370D03*
X117803553Y-91800816D03*
X118157107Y-91447263D03*
X118510660Y-91093709D03*
X118864213Y-90740156D03*
X119217767Y-90386603D03*
X119571320Y-90033049D03*
X119924874Y-89679496D03*
D61*
X119924874Y-88707224D03*
X119571320Y-88353671D03*
X119217767Y-88000117D03*
X118864213Y-87646564D03*
X118510660Y-87293011D03*
X118157107Y-86939457D03*
X117803553Y-86585904D03*
X117450000Y-86232350D03*
D62*
X116963864Y-89193360D03*
%TD*%
D12*
%TO.C,U13*%
X112550000Y-121662500D03*
X113200000Y-121662500D03*
X113850000Y-121662500D03*
X114500000Y-121662500D03*
X114500000Y-115937500D03*
X113850000Y-115937500D03*
X113200000Y-115937500D03*
X112550000Y-115937500D03*
%TD*%
D14*
%TO.C,C42*%
X55980000Y-77765000D03*
X56940000Y-77765000D03*
%TD*%
%TO.C,C125*%
X137770000Y38770000D03*
X138730000Y38770000D03*
%TD*%
D13*
%TO.C,D29*%
X84275000Y-174490000D03*
X82175000Y-174490000D03*
%TD*%
D25*
%TO.C,C73*%
X82750430Y-145926355D03*
X82750430Y-142976355D03*
%TD*%
D14*
%TO.C,C49*%
X28840000Y-86300000D03*
X29800000Y-86300000D03*
%TD*%
D13*
%TO.C,D15*%
X84200430Y-133816355D03*
X82100430Y-133816355D03*
%TD*%
D63*
%TO.C,C88*%
X163560000Y-118710000D03*
X162010000Y-118710000D03*
%TD*%
D64*
%TO.C,U45*%
X158325000Y-58750000D03*
X158325000Y-59400000D03*
X158325000Y-60050000D03*
X158325000Y-60700000D03*
X161200000Y-60700000D03*
X161200000Y-60050000D03*
X161200000Y-59400000D03*
X161200000Y-58750000D03*
D65*
X159762500Y-59725000D03*
%TD*%
D24*
%TO.C,C105*%
X79500000Y-109560000D03*
X79500000Y-108600000D03*
%TD*%
D14*
%TO.C,C143*%
X154767500Y-55860000D03*
X155727500Y-55860000D03*
%TD*%
D66*
%TO.C,Q13*%
X120700000Y-176150000D03*
X120700000Y-174880000D03*
X120700000Y-173610000D03*
X120700000Y-172340000D03*
X115450000Y-172340000D03*
X115450000Y-173610000D03*
X115450000Y-174880000D03*
X115450000Y-176150000D03*
%TD*%
D29*
%TO.C,R38*%
X196200000Y-111300000D03*
X197220000Y-111300000D03*
%TD*%
D19*
%TO.C,U21*%
X89175430Y-162966355D03*
X89175430Y-163466355D03*
X89175430Y-163966355D03*
X89175430Y-164466355D03*
X89175430Y-164966355D03*
X92125430Y-164966355D03*
X92125430Y-164466355D03*
X92125430Y-163966355D03*
X92125430Y-163466355D03*
X92125430Y-162966355D03*
D20*
X90400430Y-162416355D03*
X90400430Y-165516355D03*
D21*
X90650430Y-163966355D03*
D20*
X90900430Y-162416355D03*
X90900430Y-165516355D03*
%TD*%
D31*
%TO.C,C46*%
X109117500Y-159075000D03*
X108157500Y-159075000D03*
%TD*%
D37*
%TO.C,C107*%
X128137500Y-107698400D03*
X128137500Y-108658400D03*
%TD*%
D12*
%TO.C,U16*%
X105700000Y-130425000D03*
X106350000Y-130425000D03*
X107000000Y-130425000D03*
X107650000Y-130425000D03*
X107650000Y-124700000D03*
X107000000Y-124700000D03*
X106350000Y-124700000D03*
X105700000Y-124700000D03*
%TD*%
D29*
%TO.C,R29*%
X125450435Y-138316355D03*
X126470435Y-138316355D03*
%TD*%
D14*
%TO.C,C54*%
X91840000Y-113400000D03*
X92800000Y-113400000D03*
%TD*%
D29*
%TO.C,R37*%
X122296865Y-163759066D03*
X123316865Y-163759066D03*
%TD*%
%TO.C,R24*%
X125450435Y-123316355D03*
X126470435Y-123316355D03*
%TD*%
D67*
%TO.C,R20*%
X188000000Y-58060000D03*
X188000000Y-58700000D03*
%TD*%
D55*
%TO.C,U10*%
X119345435Y-125766355D03*
X119345435Y-125266355D03*
X119345435Y-124766355D03*
X119345435Y-124266355D03*
X119345435Y-123766355D03*
X116395435Y-123766355D03*
X116395435Y-124266355D03*
X116395435Y-124766355D03*
X116395435Y-125266355D03*
X116395435Y-125766355D03*
D20*
X118120435Y-126316355D03*
X118120435Y-123216355D03*
D21*
X117870435Y-124766355D03*
D20*
X117620435Y-126316355D03*
X117620435Y-123216355D03*
%TD*%
D68*
%TO.C,L4*%
X192287500Y-59560000D03*
X192287500Y-57910000D03*
%TD*%
D37*
%TO.C,C58*%
X112600000Y-112920000D03*
X112600000Y-113880000D03*
%TD*%
D14*
%TO.C,C67*%
X88940430Y-131316355D03*
X89900430Y-131316355D03*
%TD*%
D69*
%TO.C,R43*%
X70812930Y-125566355D03*
X64887930Y-125566355D03*
%TD*%
D26*
%TO.C,R73*%
X176860000Y-116310000D03*
X176860000Y-117330000D03*
%TD*%
D24*
%TO.C,C57*%
X120620435Y-139759066D03*
X120620435Y-138799066D03*
%TD*%
D70*
%TO.C,L6*%
X48505000Y-127720000D03*
X48505000Y-129390000D03*
X49375000Y-129390000D03*
X49375000Y-127720000D03*
%TD*%
D38*
%TO.C,C45*%
X53480000Y-78925000D03*
X54120000Y-78925000D03*
%TD*%
D11*
%TO.C,R67*%
X178860000Y-115420000D03*
X178860000Y-114400000D03*
%TD*%
D71*
%TO.C,U6*%
X188975000Y-58810000D03*
X188975000Y-59310000D03*
X188975000Y-59810000D03*
X190400000Y-59810000D03*
X190400000Y-59310000D03*
X190400000Y-58810000D03*
%TD*%
D14*
%TO.C,C96*%
X83584100Y-172897600D03*
X84544100Y-172897600D03*
%TD*%
%TO.C,C30*%
X197132500Y-60520000D03*
X198092500Y-60520000D03*
%TD*%
D72*
%TO.C,J9*%
X65200430Y-150466355D03*
X70200430Y-150466355D03*
X65200430Y-143466355D03*
X70200430Y-143466355D03*
%TD*%
D43*
%TO.C,Q6*%
X130720435Y-162116355D03*
D44*
X127995435Y-164021355D03*
X127995435Y-160211355D03*
X127995435Y-161481355D03*
X127995435Y-162751355D03*
%TD*%
D33*
%TO.C,R50*%
X86224000Y-139973644D03*
X85204000Y-139973644D03*
%TD*%
D19*
%TO.C,U19*%
X89175430Y-147966355D03*
X89175430Y-148466355D03*
X89175430Y-148966355D03*
X89175430Y-149466355D03*
X89175430Y-149966355D03*
X92125430Y-149966355D03*
X92125430Y-149466355D03*
X92125430Y-148966355D03*
X92125430Y-148466355D03*
X92125430Y-147966355D03*
D20*
X90400430Y-147416355D03*
X90400430Y-150516355D03*
D21*
X90650430Y-148966355D03*
D20*
X90900430Y-147416355D03*
X90900430Y-150516355D03*
%TD*%
D14*
%TO.C,C121*%
X112570000Y-107700000D03*
X113530000Y-107700000D03*
%TD*%
%TO.C,C77*%
X88940430Y-161316355D03*
X89900430Y-161316355D03*
%TD*%
D29*
%TO.C,R125*%
X35060000Y-120575000D03*
X36080000Y-120575000D03*
%TD*%
%TO.C,R107*%
X137760000Y20990000D03*
X138780000Y20990000D03*
%TD*%
D73*
%TO.C,R121*%
X48655000Y-125305000D03*
X50305000Y-125305000D03*
%TD*%
D74*
%TO.C,D24*%
X128800000Y-178250000D03*
X132100000Y-178250000D03*
%TD*%
D64*
%TO.C,U44*%
X158325000Y-45690000D03*
X158325000Y-46340000D03*
X158325000Y-46990000D03*
X158325000Y-47640000D03*
X161200000Y-47640000D03*
X161200000Y-46990000D03*
X161200000Y-46340000D03*
X161200000Y-45690000D03*
D65*
X159762500Y-46665000D03*
%TD*%
D39*
%TO.C,D7*%
X122420435Y-127116355D03*
X122420435Y-123816355D03*
%TD*%
D75*
%TO.C,J1*%
X44410000Y-97260000D03*
D76*
X41870000Y-94720000D03*
X41870000Y-99800000D03*
X46950000Y-94720000D03*
X46950000Y-99800000D03*
%TD*%
D31*
%TO.C,C50*%
X119580435Y-127416355D03*
X118620435Y-127416355D03*
%TD*%
D26*
%TO.C,R23*%
X120620435Y-125706355D03*
X120620435Y-126726355D03*
%TD*%
D14*
%TO.C,C93*%
X172430000Y-132005000D03*
X173390000Y-132005000D03*
%TD*%
D29*
%TO.C,R49*%
X199720000Y-119200000D03*
X200740000Y-119200000D03*
%TD*%
D11*
%TO.C,R66*%
X178860000Y-111620000D03*
X178860000Y-110600000D03*
%TD*%
D29*
%TO.C,R122*%
X49560000Y-120575000D03*
X50580000Y-120575000D03*
%TD*%
D14*
%TO.C,C66*%
X94500000Y-112300000D03*
X95460000Y-112300000D03*
%TD*%
D11*
%TO.C,R17*%
X95187500Y-155385000D03*
X95187500Y-154365000D03*
%TD*%
D66*
%TO.C,U25*%
X133250000Y-176220000D03*
X133250000Y-174950000D03*
X133250000Y-173680000D03*
X133250000Y-172410000D03*
X128000000Y-172410000D03*
X128000000Y-173680000D03*
X128000000Y-174950000D03*
X128000000Y-176220000D03*
%TD*%
D69*
%TO.C,R48*%
X70812930Y-140566355D03*
X64887930Y-140566355D03*
%TD*%
D29*
%TO.C,R44*%
X199720000Y-117210000D03*
X200740000Y-117210000D03*
%TD*%
D11*
%TO.C,R46*%
X87900430Y-148026355D03*
X87900430Y-147006355D03*
%TD*%
D72*
%TO.C,J6*%
X143320435Y-138266355D03*
X138320435Y-138266355D03*
X143320435Y-145266355D03*
X138320435Y-145266355D03*
%TD*%
D43*
%TO.C,Q2*%
X130720435Y-132116355D03*
D44*
X127995435Y-134021355D03*
X127995435Y-130211355D03*
X127995435Y-131481355D03*
X127995435Y-132751355D03*
%TD*%
D59*
%TO.C,D11*%
X124370435Y-149166355D03*
X126470435Y-149166355D03*
%TD*%
D37*
%TO.C,C112*%
X129187500Y-107698400D03*
X129187500Y-108658400D03*
%TD*%
D71*
%TO.C,U3*%
X200575000Y-58200000D03*
X200575000Y-58700000D03*
X200575000Y-59200000D03*
X202000000Y-59200000D03*
X202000000Y-58700000D03*
X202000000Y-58200000D03*
%TD*%
D26*
%TO.C,R28*%
X120620435Y-140706355D03*
X120620435Y-141726355D03*
%TD*%
D70*
%TO.C,L5*%
X107980000Y-45110000D03*
X107980000Y-46780000D03*
X108850000Y-46780000D03*
X108850000Y-45110000D03*
%TD*%
D77*
%TO.C,D16*%
X86100430Y-131616355D03*
X86100430Y-134916355D03*
%TD*%
D37*
%TO.C,C113*%
X122987500Y-99298400D03*
X122987500Y-100258400D03*
%TD*%
D13*
%TO.C,D23*%
X84150430Y-154566355D03*
X82050430Y-154566355D03*
%TD*%
D14*
%TO.C,C64*%
X91820000Y-114440000D03*
X92780000Y-114440000D03*
%TD*%
D78*
%TO.C,L2*%
X200332500Y-55385000D03*
X201982500Y-55385000D03*
%TD*%
D11*
%TO.C,R95*%
X96250000Y-95360000D03*
X96250000Y-94340000D03*
%TD*%
D14*
%TO.C,C98*%
X173920000Y-112500000D03*
X174880000Y-112500000D03*
%TD*%
D29*
%TO.C,R12*%
X99737500Y-164125000D03*
X100757500Y-164125000D03*
%TD*%
D11*
%TO.C,R26*%
X109600000Y-113910000D03*
X109600000Y-112890000D03*
%TD*%
D59*
%TO.C,D9*%
X124320435Y-139916355D03*
X126420435Y-139916355D03*
%TD*%
D24*
%TO.C,C62*%
X120620435Y-154759066D03*
X120620435Y-153799066D03*
%TD*%
D29*
%TO.C,R10*%
X197122500Y-54560000D03*
X198142500Y-54560000D03*
%TD*%
D38*
%TO.C,R15*%
X197312500Y-58540000D03*
X197952500Y-58540000D03*
%TD*%
D29*
%TO.C,R93*%
X114655000Y-51015000D03*
X115675000Y-51015000D03*
%TD*%
D14*
%TO.C,C97*%
X173920000Y-115400000D03*
X174880000Y-115400000D03*
%TD*%
%TO.C,C95*%
X172430000Y-135945000D03*
X173390000Y-135945000D03*
%TD*%
D32*
%TO.C,C31*%
X104037500Y-155525000D03*
X104037500Y-157425000D03*
%TD*%
D33*
%TO.C,R4*%
X103120000Y-90500000D03*
X102100000Y-90500000D03*
%TD*%
D59*
%TO.C,D8*%
X124370435Y-134166355D03*
X126470435Y-134166355D03*
%TD*%
D11*
%TO.C,R100*%
X95250000Y-95360000D03*
X95250000Y-94340000D03*
%TD*%
D29*
%TO.C,R56*%
X199720000Y-123180000D03*
X200740000Y-123180000D03*
%TD*%
D14*
%TO.C,C89*%
X123784100Y-171457600D03*
X124744100Y-171457600D03*
%TD*%
D79*
%TO.C,R18*%
X188900000Y-57775000D03*
X188900000Y-57135000D03*
%TD*%
D40*
%TO.C,U41*%
X114225000Y-36595000D03*
X114225000Y-37865000D03*
X114225000Y-39135000D03*
X114225000Y-40405000D03*
X119175000Y-40405000D03*
X119175000Y-39135000D03*
X119175000Y-37865000D03*
X119175000Y-36595000D03*
%TD*%
D29*
%TO.C,R16*%
X97317500Y-156575000D03*
X98337500Y-156575000D03*
%TD*%
D80*
%TO.C,U34*%
X77562500Y-109430000D03*
D81*
X78462500Y-109030000D03*
X78462500Y-108530000D03*
X78462500Y-108030000D03*
X78462500Y-107530000D03*
X78462500Y-107030000D03*
X78462500Y-106530000D03*
X78462500Y-106030000D03*
X78462500Y-105530000D03*
D80*
X77562500Y-105130000D03*
X76062500Y-105130000D03*
D81*
X75162500Y-105530000D03*
X75162500Y-106030000D03*
X75162500Y-106530000D03*
X75162500Y-107030000D03*
X75162500Y-107530000D03*
X75162500Y-108030000D03*
X75162500Y-108530000D03*
X75162500Y-109030000D03*
D80*
X76062500Y-109430000D03*
D82*
X76812500Y-107280000D03*
%TD*%
D51*
%TO.C,Q8*%
X77800430Y-126616355D03*
D52*
X80525430Y-124711355D03*
X80525430Y-128521355D03*
X80525430Y-127251355D03*
X80525430Y-125981355D03*
%TD*%
D66*
%TO.C,U28*%
X93050000Y-177660000D03*
X93050000Y-176390000D03*
X93050000Y-175120000D03*
X93050000Y-173850000D03*
X87800000Y-173850000D03*
X87800000Y-175120000D03*
X87800000Y-176390000D03*
X87800000Y-177660000D03*
%TD*%
D11*
%TO.C,R70*%
X177860000Y-111620000D03*
X177860000Y-110600000D03*
%TD*%
D83*
%TO.C,U33*%
X79575000Y-111775000D03*
X78925000Y-111775000D03*
X78275000Y-111775000D03*
X77625000Y-111775000D03*
X76975000Y-111775000D03*
X76325000Y-111775000D03*
X75675000Y-111775000D03*
X75025000Y-111775000D03*
X75025000Y-117500000D03*
X75675000Y-117500000D03*
X76325000Y-117500000D03*
X76975000Y-117500000D03*
X77625000Y-117500000D03*
X78275000Y-117500000D03*
X78925000Y-117500000D03*
X79575000Y-117500000D03*
%TD*%
D73*
%TO.C,R127*%
X163592500Y-58650000D03*
X165242500Y-58650000D03*
%TD*%
D84*
%TO.C,R61*%
X125776600Y-169857600D03*
X122851600Y-169857600D03*
%TD*%
D29*
%TO.C,R40*%
X158100000Y-163500000D03*
X159120000Y-163500000D03*
%TD*%
D37*
%TO.C,C39*%
X189787500Y-56780000D03*
X189787500Y-57740000D03*
%TD*%
D85*
%TO.C,U24*%
X168900000Y-113300000D03*
X168900000Y-113700000D03*
X168900000Y-114100000D03*
X168900000Y-114500000D03*
X168900000Y-114900000D03*
D86*
X169550000Y-115550000D03*
X169950000Y-115550000D03*
X170350000Y-115550000D03*
X170750000Y-115550000D03*
X171150000Y-115550000D03*
D85*
X171800000Y-114900000D03*
X171800000Y-114500000D03*
X171800000Y-114100000D03*
X171800000Y-113700000D03*
X171800000Y-113300000D03*
D86*
X171150000Y-112650000D03*
X170750000Y-112650000D03*
X170350000Y-112650000D03*
X169950000Y-112650000D03*
X169550000Y-112650000D03*
D87*
X170350000Y-114100000D03*
%TD*%
D29*
%TO.C,R54*%
X199720000Y-121190000D03*
X200740000Y-121190000D03*
%TD*%
D83*
%TO.C,U31*%
X79625000Y-97225000D03*
X78975000Y-97225000D03*
X78325000Y-97225000D03*
X77675000Y-97225000D03*
X77025000Y-97225000D03*
X76375000Y-97225000D03*
X75725000Y-97225000D03*
X75075000Y-97225000D03*
X75075000Y-102950000D03*
X75725000Y-102950000D03*
X76375000Y-102950000D03*
X77025000Y-102950000D03*
X77675000Y-102950000D03*
X78325000Y-102950000D03*
X78975000Y-102950000D03*
X79625000Y-102950000D03*
%TD*%
D88*
%TO.C,R30*%
X137707935Y-148166355D03*
X143632935Y-148166355D03*
%TD*%
D26*
%TO.C,R19*%
X96187500Y-154365000D03*
X96187500Y-155385000D03*
%TD*%
D70*
%TO.C,L9*%
X164802500Y-52095000D03*
X164802500Y-53765000D03*
X165672500Y-53765000D03*
X165672500Y-52095000D03*
%TD*%
D11*
%TO.C,R111*%
X113750000Y-95320000D03*
X113750000Y-94300000D03*
%TD*%
D37*
%TO.C,C111*%
X122837500Y-113948400D03*
X122837500Y-114908400D03*
%TD*%
D33*
%TO.C,R6*%
X103120000Y-91450000D03*
X102100000Y-91450000D03*
%TD*%
D29*
%TO.C,R109*%
X137760000Y17010000D03*
X138780000Y17010000D03*
%TD*%
D39*
%TO.C,D10*%
X122420435Y-142116355D03*
X122420435Y-138816355D03*
%TD*%
D89*
%TO.C,X1*%
X112650000Y-105550000D03*
X112650000Y-106650000D03*
X113450000Y-106650000D03*
X113450000Y-105550000D03*
%TD*%
D14*
%TO.C,C144*%
X154767500Y-57830000D03*
X155727500Y-57830000D03*
%TD*%
D77*
%TO.C,D22*%
X86100430Y-161616355D03*
X86100430Y-164916355D03*
%TD*%
D90*
%TO.C,D5*%
X111637500Y-160775000D03*
X108337500Y-160775000D03*
%TD*%
D37*
%TO.C,C86*%
X133350000Y-177520000D03*
X133350000Y-178480000D03*
%TD*%
D24*
%TO.C,C91*%
X85318600Y-178780000D03*
X85318600Y-177820000D03*
%TD*%
D51*
%TO.C,Q10*%
X77800430Y-141616355D03*
D52*
X80525430Y-139711355D03*
X80525430Y-143521355D03*
X80525430Y-142251355D03*
X80525430Y-140981355D03*
%TD*%
D24*
%TO.C,C85*%
X125518600Y-177340000D03*
X125518600Y-176380000D03*
%TD*%
D15*
%TO.C,U7*%
X48862500Y-74250000D03*
X48862500Y-75200000D03*
X48862500Y-76150000D03*
X51137500Y-76150000D03*
X51137500Y-74250000D03*
%TD*%
D11*
%TO.C,R106*%
X114950000Y-95310000D03*
X114950000Y-94290000D03*
%TD*%
D77*
%TO.C,D19*%
X86100430Y-146616355D03*
X86100430Y-149916355D03*
%TD*%
D14*
%TO.C,C33*%
X197132500Y-62490000D03*
X198092500Y-62490000D03*
%TD*%
D91*
%TO.C,FB5*%
X137785000Y24970000D03*
X138755000Y24970000D03*
%TD*%
D13*
%TO.C,D28*%
X84275000Y-176420000D03*
X82175000Y-176420000D03*
%TD*%
D55*
%TO.C,U12*%
X119345435Y-140766355D03*
X119345435Y-140266355D03*
X119345435Y-139766355D03*
X119345435Y-139266355D03*
X119345435Y-138766355D03*
X116395435Y-138766355D03*
X116395435Y-139266355D03*
X116395435Y-139766355D03*
X116395435Y-140266355D03*
X116395435Y-140766355D03*
D20*
X118120435Y-141316355D03*
X118120435Y-138216355D03*
D21*
X117870435Y-139766355D03*
D20*
X117620435Y-141316355D03*
X117620435Y-138216355D03*
%TD*%
D14*
%TO.C,C82*%
X202640000Y-123110000D03*
X203600000Y-123110000D03*
%TD*%
D92*
%TO.C,J18*%
X66350000Y-82050000D03*
X66350000Y-83300000D03*
D93*
X63150000Y-80200000D03*
X63150000Y-85150000D03*
%TD*%
D69*
%TO.C,R53*%
X70812930Y-155566355D03*
X64887930Y-155566355D03*
%TD*%
D29*
%TO.C,R119*%
X109035000Y-37965000D03*
X110055000Y-37965000D03*
%TD*%
D15*
%TO.C,U5*%
X97600000Y-153400000D03*
X97600000Y-154350000D03*
X97600000Y-155300000D03*
X99875000Y-155300000D03*
X99875000Y-154350000D03*
X99875000Y-153400000D03*
%TD*%
D29*
%TO.C,R58*%
X172410000Y-163500000D03*
X173430000Y-163500000D03*
%TD*%
D14*
%TO.C,C75*%
X202640000Y-119170000D03*
X203600000Y-119170000D03*
%TD*%
D13*
%TO.C,D17*%
X84150430Y-124566355D03*
X82050430Y-124566355D03*
%TD*%
D73*
%TO.C,R124*%
X34155000Y-125305000D03*
X35805000Y-125305000D03*
%TD*%
D11*
%TO.C,R51*%
X87900430Y-163026355D03*
X87900430Y-162006355D03*
%TD*%
D31*
%TO.C,C36*%
X187917500Y-59810000D03*
X186957500Y-59810000D03*
%TD*%
D94*
%TO.C,U2*%
X100187500Y-159045000D03*
X100187500Y-160315000D03*
X100187500Y-161585000D03*
X100187500Y-162855000D03*
X105487500Y-162855000D03*
X105487500Y-161585000D03*
X105487500Y-160315000D03*
X105487500Y-159045000D03*
D95*
X102837500Y-160950000D03*
%TD*%
D26*
%TO.C,R65*%
X178860000Y-116300000D03*
X178860000Y-117320000D03*
%TD*%
D24*
%TO.C,C106*%
X74100000Y-109560000D03*
X74100000Y-108600000D03*
%TD*%
D33*
%TO.C,R42*%
X83070430Y-135416355D03*
X82050430Y-135416355D03*
%TD*%
D13*
%TO.C,D18*%
X84200430Y-148816355D03*
X82100430Y-148816355D03*
%TD*%
D14*
%TO.C,C65*%
X199120000Y-111230000D03*
X200080000Y-111230000D03*
%TD*%
D38*
%TO.C,R13*%
X197312500Y-56550000D03*
X197952500Y-56550000D03*
%TD*%
D72*
%TO.C,J8*%
X65200430Y-135466355D03*
X70200430Y-135466355D03*
X65200430Y-128466355D03*
X70200430Y-128466355D03*
%TD*%
D12*
%TO.C,U20*%
X98435000Y-121662500D03*
X99085000Y-121662500D03*
X99735000Y-121662500D03*
X100385000Y-121662500D03*
X100385000Y-115937500D03*
X99735000Y-115937500D03*
X99085000Y-115937500D03*
X98435000Y-115937500D03*
%TD*%
D29*
%TO.C,R110*%
X140670000Y24970000D03*
X141690000Y24970000D03*
%TD*%
D37*
%TO.C,C69*%
X87900430Y-133973644D03*
X87900430Y-134933644D03*
%TD*%
D14*
%TO.C,C43*%
X55980000Y-79735000D03*
X56940000Y-79735000D03*
%TD*%
D38*
%TO.C,C40*%
X53480000Y-73675000D03*
X54120000Y-73675000D03*
%TD*%
D51*
%TO.C,Q1*%
X130920435Y-125666355D03*
D52*
X133645435Y-123761355D03*
X133645435Y-127571355D03*
X133645435Y-126301355D03*
X133645435Y-125031355D03*
%TD*%
D96*
%TO.C,J19*%
X142400000Y-86225000D03*
X142400000Y-84975000D03*
D97*
X145600000Y-88075000D03*
X145600000Y-83125000D03*
%TD*%
D26*
%TO.C,R75*%
X175860000Y-110600000D03*
X175860000Y-111620000D03*
%TD*%
D24*
%TO.C,C100*%
X85850000Y-103310000D03*
X85850000Y-102350000D03*
%TD*%
D14*
%TO.C,C138*%
X154767500Y-40830000D03*
X155727500Y-40830000D03*
%TD*%
D70*
%TO.C,L8*%
X164802500Y-39035000D03*
X164802500Y-40705000D03*
X165672500Y-40705000D03*
X165672500Y-39035000D03*
%TD*%
D29*
%TO.C,R115*%
X140670000Y17010000D03*
X141690000Y17010000D03*
%TD*%
D59*
%TO.C,D12*%
X124320435Y-154916355D03*
X126420435Y-154916355D03*
%TD*%
D22*
%TO.C,J12*%
X136787500Y-118678400D03*
D23*
X138787500Y-118678400D03*
X136787500Y-116678400D03*
X138787500Y-116678400D03*
X136787500Y-114678400D03*
X138787500Y-114678400D03*
X136787500Y-112678400D03*
X138787500Y-112678400D03*
X136787500Y-110678400D03*
X138787500Y-110678400D03*
X136787500Y-108678400D03*
X138787500Y-108678400D03*
X136787500Y-106678400D03*
X138787500Y-106678400D03*
X136787500Y-104678400D03*
X138787500Y-104678400D03*
X136787500Y-102678400D03*
X138787500Y-102678400D03*
X136787500Y-100678400D03*
X138787500Y-100678400D03*
%TD*%
D29*
%TO.C,R94*%
X114655000Y-53005000D03*
X115675000Y-53005000D03*
%TD*%
D24*
%TO.C,C104*%
X85700000Y-117960000D03*
X85700000Y-117000000D03*
%TD*%
D29*
%TO.C,R117*%
X109035000Y-35975000D03*
X110055000Y-35975000D03*
%TD*%
D12*
%TO.C,U37*%
X129125000Y-105875000D03*
X129775000Y-105875000D03*
X130425000Y-105875000D03*
X131075000Y-105875000D03*
X131725000Y-105875000D03*
X132375000Y-105875000D03*
X133025000Y-105875000D03*
X133675000Y-105875000D03*
X133675000Y-100150000D03*
X133025000Y-100150000D03*
X132375000Y-100150000D03*
X131725000Y-100150000D03*
X131075000Y-100150000D03*
X130425000Y-100150000D03*
X129775000Y-100150000D03*
X129125000Y-100150000D03*
%TD*%
D98*
%TO.C,U4*%
X100200000Y-177700000D03*
D99*
X107400000Y-177700000D03*
%TD*%
D14*
%TO.C,C103*%
X86400000Y-114610000D03*
X87360000Y-114610000D03*
%TD*%
D37*
%TO.C,C63*%
X108600000Y-112920000D03*
X108600000Y-113880000D03*
%TD*%
D72*
%TO.C,J7*%
X143320435Y-153266355D03*
X138320435Y-153266355D03*
X143320435Y-160266355D03*
X138320435Y-160266355D03*
%TD*%
D14*
%TO.C,C134*%
X109045000Y-39945000D03*
X110005000Y-39945000D03*
%TD*%
D25*
%TO.C,C78*%
X82750430Y-160926355D03*
X82750430Y-157976355D03*
%TD*%
D14*
%TO.C,C141*%
X154767500Y-51920000D03*
X155727500Y-51920000D03*
%TD*%
%TO.C,C94*%
X172430000Y-133975000D03*
X173390000Y-133975000D03*
%TD*%
D29*
%TO.C,R27*%
X122296865Y-133759066D03*
X123316865Y-133759066D03*
%TD*%
D15*
%TO.C,U27*%
X177800000Y-128850000D03*
X177800000Y-129800000D03*
X177800000Y-130750000D03*
X180075000Y-130750000D03*
X180075000Y-128850000D03*
%TD*%
D14*
%TO.C,C71*%
X97900000Y-112820000D03*
X98860000Y-112820000D03*
%TD*%
D74*
%TO.C,D27*%
X88600000Y-179690000D03*
X91900000Y-179690000D03*
%TD*%
D15*
%TO.C,Q15*%
X99937500Y-51470000D03*
X99937500Y-53370000D03*
X102212500Y-52420000D03*
%TD*%
D38*
%TO.C,C41*%
X53480000Y-75425000D03*
X54120000Y-75425000D03*
%TD*%
D33*
%TO.C,R55*%
X86224000Y-154973644D03*
X85204000Y-154973644D03*
%TD*%
D29*
%TO.C,R72*%
X173890000Y-111500000D03*
X174910000Y-111500000D03*
%TD*%
D13*
%TO.C,D26*%
X124475000Y-173050000D03*
X122375000Y-173050000D03*
%TD*%
D92*
%TO.C,J17*%
X66350000Y-88875000D03*
X66350000Y-90125000D03*
X66350000Y-91375000D03*
X66350000Y-92625000D03*
D93*
X63150000Y-87025000D03*
X63150000Y-94475000D03*
%TD*%
D73*
%TO.C,R118*%
X108130000Y-42695000D03*
X109780000Y-42695000D03*
%TD*%
D63*
%TO.C,C34*%
X99512500Y-151775000D03*
X97962500Y-151775000D03*
%TD*%
D11*
%TO.C,R41*%
X87900430Y-133026355D03*
X87900430Y-132006355D03*
%TD*%
D29*
%TO.C,R32*%
X122296865Y-148759066D03*
X123316865Y-148759066D03*
%TD*%
%TO.C,R83*%
X86390000Y-112630000D03*
X87410000Y-112630000D03*
%TD*%
D37*
%TO.C,C92*%
X93150000Y-178960000D03*
X93150000Y-179920000D03*
%TD*%
D43*
%TO.C,Q11*%
X77600430Y-163066355D03*
D44*
X74875430Y-164971355D03*
X74875430Y-161161355D03*
X74875430Y-162431355D03*
X74875430Y-163701355D03*
%TD*%
D46*
%TO.C,D1*%
X83125000Y-51900000D03*
X83125000Y-52400000D03*
D47*
X83162500Y-52900000D03*
D46*
X83125000Y-53400000D03*
X83125000Y-53900000D03*
X83900000Y-53900000D03*
X83900000Y-53400000D03*
D48*
X83925000Y-52900000D03*
D46*
X83900000Y-52400000D03*
X83900000Y-51900000D03*
%TD*%
D84*
%TO.C,R64*%
X85576600Y-171297600D03*
X82651600Y-171297600D03*
%TD*%
D40*
%TO.C,U42*%
X40775000Y-125500000D03*
X40775000Y-126770000D03*
X40775000Y-128040000D03*
X40775000Y-129310000D03*
X45725000Y-129310000D03*
X45725000Y-128040000D03*
X45725000Y-126770000D03*
X45725000Y-125500000D03*
%TD*%
D30*
%TO.C,C38*%
X99387500Y-147975000D03*
X97487500Y-147975000D03*
%TD*%
D12*
%TO.C,U35*%
X129075000Y-119612500D03*
X129725000Y-119612500D03*
X130375000Y-119612500D03*
X131025000Y-119612500D03*
X131675000Y-119612500D03*
X132325000Y-119612500D03*
X132975000Y-119612500D03*
X133625000Y-119612500D03*
X133625000Y-113887500D03*
X132975000Y-113887500D03*
X132325000Y-113887500D03*
X131675000Y-113887500D03*
X131025000Y-113887500D03*
X130375000Y-113887500D03*
X129725000Y-113887500D03*
X129075000Y-113887500D03*
%TD*%
D29*
%TO.C,R34*%
X125450435Y-153316355D03*
X126470435Y-153316355D03*
%TD*%
%TO.C,R123*%
X35060000Y-118585000D03*
X36080000Y-118585000D03*
%TD*%
D11*
%TO.C,R31*%
X111600000Y-113910000D03*
X111600000Y-112890000D03*
%TD*%
D14*
%TO.C,C130*%
X137770000Y30890000D03*
X138730000Y30890000D03*
%TD*%
D13*
%TO.C,D21*%
X84200430Y-163816355D03*
X82100430Y-163816355D03*
%TD*%
D31*
%TO.C,C55*%
X119580435Y-142416355D03*
X118620435Y-142416355D03*
%TD*%
D59*
%TO.C,D6*%
X124320435Y-124916355D03*
X126420435Y-124916355D03*
%TD*%
D100*
%TO.C,K1*%
X78765000Y-78310000D03*
X80035000Y-78310000D03*
X80035000Y-70690000D03*
X78765000Y-70690000D03*
%TD*%
D43*
%TO.C,Q7*%
X77600430Y-133066355D03*
D44*
X74875430Y-134971355D03*
X74875430Y-131161355D03*
X74875430Y-132431355D03*
X74875430Y-133701355D03*
%TD*%
D72*
%TO.C,J10*%
X65200430Y-165466355D03*
X70200430Y-165466355D03*
X65200430Y-158466355D03*
X70200430Y-158466355D03*
%TD*%
D39*
%TO.C,D13*%
X122420435Y-157116355D03*
X122420435Y-153816355D03*
%TD*%
D96*
%TO.C,J16*%
X142400000Y-95125000D03*
X142400000Y-93875000D03*
X142400000Y-92625000D03*
X142400000Y-91375000D03*
D97*
X145600000Y-96975000D03*
X145600000Y-89525000D03*
%TD*%
D37*
%TO.C,C74*%
X87900430Y-148973644D03*
X87900430Y-149933644D03*
%TD*%
D12*
%TO.C,U11*%
X109050000Y-121662500D03*
X109700000Y-121662500D03*
X110350000Y-121662500D03*
X111000000Y-121662500D03*
X111000000Y-115937500D03*
X110350000Y-115937500D03*
X109700000Y-115937500D03*
X109050000Y-115937500D03*
%TD*%
D24*
%TO.C,C29*%
X107037500Y-160005000D03*
X107037500Y-159045000D03*
%TD*%
D66*
%TO.C,Q14*%
X80500000Y-177590000D03*
X80500000Y-176320000D03*
X80500000Y-175050000D03*
X80500000Y-173780000D03*
X75250000Y-173780000D03*
X75250000Y-175050000D03*
X75250000Y-176320000D03*
X75250000Y-177590000D03*
%TD*%
D29*
%TO.C,R1*%
X96490000Y-103400000D03*
X97510000Y-103400000D03*
%TD*%
D72*
%TO.C,J5*%
X143320435Y-123266355D03*
X138320435Y-123266355D03*
X143320435Y-130266355D03*
X138320435Y-130266355D03*
%TD*%
D51*
%TO.C,Q3*%
X130920435Y-140666355D03*
D52*
X133645435Y-138761355D03*
X133645435Y-142571355D03*
X133645435Y-141301355D03*
X133645435Y-140031355D03*
%TD*%
D51*
%TO.C,Q5*%
X130920435Y-155666355D03*
D52*
X133645435Y-153761355D03*
X133645435Y-157571355D03*
X133645435Y-156301355D03*
X133645435Y-155031355D03*
%TD*%
D29*
%TO.C,R85*%
X104595000Y-53005000D03*
X105615000Y-53005000D03*
%TD*%
D33*
%TO.C,R52*%
X83070430Y-165416355D03*
X82050430Y-165416355D03*
%TD*%
D29*
%TO.C,R84*%
X104595000Y-51015000D03*
X105615000Y-51015000D03*
%TD*%
%TO.C,R21*%
X25920000Y-84340000D03*
X26940000Y-84340000D03*
%TD*%
D88*
%TO.C,R25*%
X137707935Y-133166355D03*
X143632935Y-133166355D03*
%TD*%
D101*
%TO.C,C90*%
X78850000Y-179835000D03*
X75900000Y-179835000D03*
%TD*%
D14*
%TO.C,C122*%
X112600000Y-104500000D03*
X113560000Y-104500000D03*
%TD*%
D29*
%TO.C,R71*%
X173880000Y-116400000D03*
X174900000Y-116400000D03*
%TD*%
D24*
%TO.C,C99*%
X175360000Y-114422500D03*
X175360000Y-113462500D03*
%TD*%
D91*
%TO.C,FB2*%
X55995000Y-73795000D03*
X56965000Y-73795000D03*
%TD*%
D14*
%TO.C,C87*%
X162880000Y-117510000D03*
X163840000Y-117510000D03*
%TD*%
D60*
%TO.C,U39*%
X96156408Y-86278679D03*
X95802855Y-86632233D03*
X95449301Y-86985786D03*
X95095748Y-87339340D03*
X94742195Y-87692893D03*
X94388641Y-88046446D03*
X94035088Y-88400000D03*
X93681534Y-88753553D03*
D61*
X93681534Y-89725825D03*
X94035088Y-90079378D03*
X94388641Y-90432932D03*
X94742195Y-90786485D03*
X95095748Y-91140038D03*
X95449301Y-91493592D03*
X95802855Y-91847145D03*
X96156408Y-92200699D03*
D60*
X97128680Y-92200699D03*
X97482233Y-91847145D03*
X97835787Y-91493592D03*
X98189340Y-91140038D03*
X98542893Y-90786485D03*
X98896447Y-90432932D03*
X99250000Y-90079378D03*
X99603554Y-89725825D03*
D61*
X99603554Y-88753553D03*
X99250000Y-88400000D03*
X98896447Y-88046446D03*
X98542893Y-87692893D03*
X98189340Y-87339340D03*
X97835787Y-86985786D03*
X97482233Y-86632233D03*
X97128680Y-86278679D03*
D62*
X96642544Y-89239689D03*
%TD*%
D15*
%TO.C,Q16*%
X109997500Y-51470000D03*
X109997500Y-53370000D03*
X112272500Y-52420000D03*
%TD*%
D29*
%TO.C,R108*%
X137760000Y19000000D03*
X138780000Y19000000D03*
%TD*%
D102*
%TO.C,U30*%
X176360000Y-114922500D03*
X176860000Y-114922500D03*
X177360000Y-114922500D03*
X177860000Y-114922500D03*
X177860000Y-112997500D03*
X177360000Y-112997500D03*
X176860000Y-112997500D03*
X176360000Y-112997500D03*
D103*
X177110000Y-113960000D03*
%TD*%
D14*
%TO.C,C129*%
X137770000Y32860000D03*
X138730000Y32860000D03*
%TD*%
D101*
%TO.C,C84*%
X119050000Y-178395000D03*
X116100000Y-178395000D03*
%TD*%
D16*
%TO.C,J13*%
X98110000Y-80420000D03*
D17*
X96850000Y-82960000D03*
X95570000Y-80420000D03*
X94310000Y-82960000D03*
X93030000Y-80420000D03*
X91770000Y-82960000D03*
X90490000Y-80420000D03*
X89230000Y-82960000D03*
X100295000Y-69160000D03*
X97755000Y-69160000D03*
X89585000Y-69160000D03*
X87045000Y-69160000D03*
D18*
X101415000Y-77110000D03*
X85925000Y-77110000D03*
%TD*%
D14*
%TO.C,C142*%
X154767500Y-53890000D03*
X155727500Y-53890000D03*
%TD*%
D73*
%TO.C,R126*%
X163592500Y-45590000D03*
X165242500Y-45590000D03*
%TD*%
D88*
%TO.C,R35*%
X137707935Y-163166355D03*
X143632935Y-163166355D03*
%TD*%
D29*
%TO.C,R2*%
X80240000Y-91600000D03*
X81260000Y-91600000D03*
%TD*%
D91*
%TO.C,FB3*%
X55995000Y-75785000D03*
X56965000Y-75785000D03*
%TD*%
D14*
%TO.C,C127*%
X137770000Y34830000D03*
X138730000Y34830000D03*
%TD*%
D29*
%TO.C,R120*%
X49560000Y-118585000D03*
X50580000Y-118585000D03*
%TD*%
D12*
%TO.C,U18*%
X94825000Y-121662500D03*
X95475000Y-121662500D03*
X96125000Y-121662500D03*
X96775000Y-121662500D03*
X96775000Y-115937500D03*
X96125000Y-115937500D03*
X95475000Y-115937500D03*
X94825000Y-115937500D03*
%TD*%
D104*
%TO.C,L1*%
X107337500Y-157625000D03*
X107337500Y-154625000D03*
%TD*%
D12*
%TO.C,U15*%
X105650000Y-121662500D03*
X106300000Y-121662500D03*
X106950000Y-121662500D03*
X107600000Y-121662500D03*
X107600000Y-115937500D03*
X106950000Y-115937500D03*
X106300000Y-115937500D03*
X105650000Y-115937500D03*
%TD*%
D33*
%TO.C,R14*%
X104257500Y-164125000D03*
X103237500Y-164125000D03*
%TD*%
D45*
%TO.C,C61*%
X125770435Y-157806355D03*
X125770435Y-160756355D03*
%TD*%
D31*
%TO.C,C110*%
X122287500Y-102648400D03*
X121327500Y-102648400D03*
%TD*%
D105*
%TO.C,U1*%
X99900000Y-99400000D03*
X100700000Y-99400000D03*
X101500000Y-99400000D03*
X102300000Y-99400000D03*
X103100000Y-99400000D03*
X103900000Y-99400000D03*
X104700000Y-99400000D03*
X105500000Y-99400000D03*
X106300000Y-99400000D03*
X107100000Y-99400000D03*
X107900000Y-99400000D03*
X108700000Y-99400000D03*
X109500000Y-99400000D03*
X110300000Y-99400000D03*
X99900000Y-100200000D03*
X100700000Y-100200000D03*
X101500000Y-100200000D03*
X102300000Y-100200000D03*
X103100000Y-100200000D03*
X103900000Y-100200000D03*
X104700000Y-100200000D03*
X105500000Y-100200000D03*
X106300000Y-100200000D03*
X107100000Y-100200000D03*
X107900000Y-100200000D03*
X108700000Y-100200000D03*
X109500000Y-100200000D03*
X110300000Y-100200000D03*
X99900000Y-101000000D03*
X100700000Y-101000000D03*
X101500000Y-101000000D03*
X102300000Y-101000001D03*
X103100000Y-101000000D03*
X103899999Y-101000000D03*
X104700000Y-101000000D03*
X105500000Y-101000000D03*
X106300001Y-101000000D03*
X107100000Y-101000000D03*
X107900000Y-101000001D03*
X108700000Y-101000000D03*
X109500000Y-101000000D03*
X110300000Y-101000000D03*
X99900000Y-101800000D03*
X100700000Y-101800000D03*
X101500001Y-101800000D03*
X102300000Y-101800000D03*
X103099999Y-101800000D03*
X103900000Y-101800000D03*
X104700000Y-101800000D03*
X105500000Y-101800000D03*
X106300000Y-101800000D03*
X107100001Y-101800000D03*
X107900000Y-101800000D03*
X108699999Y-101800000D03*
X109500000Y-101800000D03*
X110300000Y-101800000D03*
X99900000Y-102600000D03*
X100700000Y-102600000D03*
X101500000Y-102600000D03*
X102300000Y-102599999D03*
X103100000Y-102600000D03*
X103899999Y-102600000D03*
X104700000Y-102600000D03*
X105500000Y-102600000D03*
X106300001Y-102600000D03*
X107100000Y-102600000D03*
X107900000Y-102599999D03*
X108700000Y-102600000D03*
X109500000Y-102600000D03*
X110300000Y-102600000D03*
X99900000Y-103400000D03*
X100700000Y-103400000D03*
X101500000Y-103399999D03*
X102300000Y-103400000D03*
X103100000Y-103399999D03*
X103900000Y-103400000D03*
X104700000Y-103400000D03*
X105500000Y-103400000D03*
X106300000Y-103400000D03*
X107100000Y-103399999D03*
X107900000Y-103400000D03*
X108700000Y-103399999D03*
X109500000Y-103400000D03*
X110300000Y-103400000D03*
X99900000Y-104200000D03*
X100700000Y-104200000D03*
X101500000Y-104200000D03*
X102300000Y-104200000D03*
X103100000Y-104200000D03*
X103900000Y-104200000D03*
X104700000Y-104200000D03*
X105500000Y-104200000D03*
X106300000Y-104200000D03*
X107100000Y-104200000D03*
X107900000Y-104200000D03*
X108700000Y-104200000D03*
X109500000Y-104200000D03*
X110300000Y-104200000D03*
X99900000Y-105000000D03*
X100700000Y-105000000D03*
X101500000Y-105000000D03*
X102300000Y-105000000D03*
X103100000Y-105000000D03*
X103900000Y-105000000D03*
X104700000Y-105000000D03*
X105500000Y-105000000D03*
X106300000Y-105000000D03*
X107100000Y-105000000D03*
X107900000Y-105000000D03*
X108700000Y-105000000D03*
X109500000Y-105000000D03*
X110300000Y-105000000D03*
X99900000Y-105800000D03*
X100700000Y-105800000D03*
X101500000Y-105800001D03*
X102300000Y-105800000D03*
X103100000Y-105800001D03*
X103900000Y-105800000D03*
X104700000Y-105800000D03*
X105500000Y-105800000D03*
X106300000Y-105800000D03*
X107100000Y-105800001D03*
X107900000Y-105800000D03*
X108700000Y-105800001D03*
X109500000Y-105800000D03*
X110300000Y-105800000D03*
X99900000Y-106600000D03*
X100700000Y-106600000D03*
X101500000Y-106600000D03*
X102300000Y-106600001D03*
X103100000Y-106600000D03*
X103899999Y-106600000D03*
X104700000Y-106600000D03*
X105500000Y-106600000D03*
X106300001Y-106600000D03*
X107100000Y-106600000D03*
X107900000Y-106600001D03*
X108700000Y-106600000D03*
X109500000Y-106600000D03*
X110300000Y-106600000D03*
X99900000Y-107400000D03*
X100700000Y-107400000D03*
X101500001Y-107400000D03*
X102300000Y-107400000D03*
X103099999Y-107400000D03*
X103900000Y-107400000D03*
X104700000Y-107400000D03*
X105500000Y-107400000D03*
X106300000Y-107400000D03*
X107100001Y-107400000D03*
X107900000Y-107400000D03*
X108699999Y-107400000D03*
X109500000Y-107400000D03*
X110300000Y-107400000D03*
X99900000Y-108200000D03*
X100700000Y-108200000D03*
X101500000Y-108200000D03*
X102300000Y-108199999D03*
X103100000Y-108200000D03*
X103899999Y-108200000D03*
X104700000Y-108200000D03*
X105500000Y-108200000D03*
X106300001Y-108200000D03*
X107100000Y-108200000D03*
X107900000Y-108199999D03*
X108700000Y-108200000D03*
X109500000Y-108200000D03*
X110300000Y-108200000D03*
X99900000Y-109000000D03*
X100700000Y-109000000D03*
X101500000Y-109000000D03*
X102300000Y-109000000D03*
X103100000Y-109000000D03*
X103900000Y-109000000D03*
X104700000Y-109000000D03*
X105500000Y-109000000D03*
X106300000Y-109000000D03*
X107100000Y-109000000D03*
X107900000Y-109000000D03*
X108700000Y-109000000D03*
X109500000Y-109000000D03*
X110300000Y-109000000D03*
X99900000Y-109800000D03*
X100700000Y-109800000D03*
X101500000Y-109800000D03*
X102300000Y-109800000D03*
X103100000Y-109800000D03*
X103900000Y-109800000D03*
X104700000Y-109800000D03*
X105500000Y-109800000D03*
X106300000Y-109800000D03*
X107100000Y-109800000D03*
X107900000Y-109800000D03*
X108700000Y-109800000D03*
X109500000Y-109800000D03*
X110300000Y-109800000D03*
%TD*%
D13*
%TO.C,D20*%
X84150430Y-139566355D03*
X82050430Y-139566355D03*
%TD*%
D70*
%TO.C,L7*%
X34005000Y-127720000D03*
X34005000Y-129390000D03*
X34875000Y-129390000D03*
X34875000Y-127720000D03*
%TD*%
D26*
%TO.C,R60*%
X125550000Y-172540000D03*
X125550000Y-173560000D03*
%TD*%
D14*
%TO.C,C140*%
X154767500Y-44770000D03*
X155727500Y-44770000D03*
%TD*%
D29*
%TO.C,R3*%
X80240000Y-93590000D03*
X81260000Y-93590000D03*
%TD*%
D106*
%TO.C,U38*%
X131125000Y-107828400D03*
D107*
X130225000Y-108228400D03*
X130225000Y-108728400D03*
X130225000Y-109228400D03*
X130225000Y-109728400D03*
X130225000Y-110228400D03*
X130225000Y-110728400D03*
X130225000Y-111228400D03*
X130225000Y-111728400D03*
D106*
X131125000Y-112128400D03*
X132625000Y-112128400D03*
D107*
X133525000Y-111728400D03*
X133525000Y-111228400D03*
X133525000Y-110728400D03*
X133525000Y-110228400D03*
X133525000Y-109728400D03*
X133525000Y-109228400D03*
X133525000Y-108728400D03*
X133525000Y-108228400D03*
D106*
X132625000Y-107828400D03*
D108*
X131875000Y-109978400D03*
%TD*%
D109*
%TO.C,C28*%
X96237500Y-161375000D03*
D110*
X96237500Y-158875000D03*
%TD*%
M02*
