%TF.GenerationSoftware,KiCad,Pcbnew,9.0.2-9-g92f6307ebb*%
%TF.CreationDate,2025-06-20T01:42:08+08:00*%
%TF.ProjectId,HPM5E31_ECatDualFOC,48504d35-4533-4315-9f45-436174447561,rev?*%
%TF.SameCoordinates,Original*%
%TF.FileFunction,Soldermask,Bot*%
%TF.FilePolarity,Negative*%
%FSLAX46Y46*%
G04 Gerber Fmt 4.6, Leading zero omitted, Abs format (unit mm)*
G04 Created by KiCad (PCBNEW 9.0.2-9-g92f6307ebb) date 2025-06-20 01:42:08*
%MOMM*%
%LPD*%
G01*
G04 APERTURE LIST*
G04 Aperture macros list*
%AMRoundRect*
0 Rectangle with rounded corners*
0 $1 Rounding radius*
0 $2 $3 $4 $5 $6 $7 $8 $9 X,Y pos of 4 corners*
0 Add a 4 corners polygon primitive as box body*
4,1,4,$2,$3,$4,$5,$6,$7,$8,$9,$2,$3,0*
0 Add four circle primitives for the rounded corners*
1,1,$1+$1,$2,$3*
1,1,$1+$1,$4,$5*
1,1,$1+$1,$6,$7*
1,1,$1+$1,$8,$9*
0 Add four rect primitives between the rounded corners*
20,1,$1+$1,$2,$3,$4,$5,0*
20,1,$1+$1,$4,$5,$6,$7,0*
20,1,$1+$1,$6,$7,$8,$9,0*
20,1,$1+$1,$8,$9,$2,$3,0*%
G04 Aperture macros list end*
%ADD10C,3.250000*%
%ADD11RoundRect,0.250500X0.499500X0.499500X-0.499500X0.499500X-0.499500X-0.499500X0.499500X-0.499500X0*%
%ADD12C,1.500000*%
%ADD13C,2.500000*%
%ADD14R,1.200000X1.200000*%
%ADD15C,1.200000*%
%ADD16R,1.700000X1.700000*%
%ADD17C,1.700000*%
%ADD18C,3.500000*%
%ADD19O,2.200000X1.400000*%
%ADD20C,2.050000*%
%ADD21C,2.250000*%
%ADD22RoundRect,1.500000X-1.500000X-1.500000X1.500000X-1.500000X1.500000X1.500000X-1.500000X1.500000X0*%
%ADD23C,6.000000*%
%ADD24RoundRect,0.100000X-0.130000X-0.100000X0.130000X-0.100000X0.130000X0.100000X-0.130000X0.100000X0*%
%ADD25RoundRect,0.225000X0.225000X0.250000X-0.225000X0.250000X-0.225000X-0.250000X0.225000X-0.250000X0*%
%ADD26RoundRect,0.162500X-0.162500X0.650000X-0.162500X-0.650000X0.162500X-0.650000X0.162500X0.650000X0*%
%ADD27RoundRect,0.100000X0.130000X0.100000X-0.130000X0.100000X-0.130000X-0.100000X0.130000X-0.100000X0*%
%ADD28RoundRect,0.135000X-0.185000X0.135000X-0.185000X-0.135000X0.185000X-0.135000X0.185000X0.135000X0*%
%ADD29RoundRect,0.200000X-0.200000X-0.275000X0.200000X-0.275000X0.200000X0.275000X-0.200000X0.275000X0*%
%ADD30RoundRect,0.135000X0.185000X-0.135000X0.185000X0.135000X-0.185000X0.135000X-0.185000X-0.135000X0*%
%ADD31RoundRect,0.250000X-0.362500X-1.425000X0.362500X-1.425000X0.362500X1.425000X-0.362500X1.425000X0*%
%ADD32RoundRect,0.250000X0.550000X-0.550000X0.550000X0.550000X-0.550000X0.550000X-0.550000X-0.550000X0*%
%ADD33C,1.600000*%
%ADD34RoundRect,0.200000X0.200000X0.275000X-0.200000X0.275000X-0.200000X-0.275000X0.200000X-0.275000X0*%
%ADD35RoundRect,0.140000X-0.140000X-0.170000X0.140000X-0.170000X0.140000X0.170000X-0.140000X0.170000X0*%
%ADD36RoundRect,0.147500X-0.172500X0.147500X-0.172500X-0.147500X0.172500X-0.147500X0.172500X0.147500X0*%
%ADD37RoundRect,0.100000X-0.100000X0.130000X-0.100000X-0.130000X0.100000X-0.130000X0.100000X0.130000X0*%
%ADD38RoundRect,0.140000X-0.170000X0.140000X-0.170000X-0.140000X0.170000X-0.140000X0.170000X0.140000X0*%
%ADD39RoundRect,0.140000X0.021213X-0.219203X0.219203X-0.021213X-0.021213X0.219203X-0.219203X0.021213X0*%
%ADD40RoundRect,0.140000X0.140000X0.170000X-0.140000X0.170000X-0.140000X-0.170000X0.140000X-0.170000X0*%
%ADD41RoundRect,0.140000X0.170000X-0.140000X0.170000X0.140000X-0.170000X0.140000X-0.170000X-0.140000X0*%
%ADD42RoundRect,0.225000X-0.225000X-0.250000X0.225000X-0.250000X0.225000X0.250000X-0.225000X0.250000X0*%
%ADD43RoundRect,0.147500X-0.147500X-0.172500X0.147500X-0.172500X0.147500X0.172500X-0.147500X0.172500X0*%
%ADD44RoundRect,0.250000X1.000000X0.900000X-1.000000X0.900000X-1.000000X-0.900000X1.000000X-0.900000X0*%
%ADD45RoundRect,0.250000X-0.450000X0.262500X-0.450000X-0.262500X0.450000X-0.262500X0.450000X0.262500X0*%
%ADD46RoundRect,0.100000X0.100000X-0.130000X0.100000X0.130000X-0.100000X0.130000X-0.100000X-0.130000X0*%
G04 APERTURE END LIST*
D10*
%TO.C,J14*%
X118600000Y-74100000D03*
X107170000Y-74100000D03*
D11*
X117325000Y-80460000D03*
D12*
X116065000Y-83000000D03*
X114785000Y-80460000D03*
X113525000Y-83000000D03*
X112245000Y-80460000D03*
X110985000Y-83000000D03*
X109705000Y-80460000D03*
X108445000Y-83000000D03*
X119510000Y-69200000D03*
X116970000Y-69200000D03*
X108800000Y-69200000D03*
X106260000Y-69200000D03*
D13*
X120630000Y-77150000D03*
X105140000Y-77150000D03*
%TD*%
D14*
%TO.C,J11*%
X71900000Y-98580000D03*
D15*
X69900000Y-98580000D03*
X71900000Y-100580000D03*
X69900000Y-100580000D03*
X71900000Y-102580000D03*
X69900000Y-102580000D03*
X71900000Y-104580000D03*
X69900000Y-104580000D03*
X71900000Y-106580000D03*
X69900000Y-106580000D03*
X71900000Y-108580000D03*
X69900000Y-108580000D03*
X71900000Y-110580000D03*
X69900000Y-110580000D03*
X71900000Y-112580000D03*
X69900000Y-112580000D03*
X71900000Y-114580000D03*
X69900000Y-114580000D03*
X71900000Y-116580000D03*
X69900000Y-116580000D03*
%TD*%
D16*
%TO.C,J4*%
X129470000Y-78010000D03*
D17*
X131970000Y-78010000D03*
X131970000Y-76010000D03*
X129470000Y-76010000D03*
D18*
X124700000Y-73300000D03*
X136740000Y-73300000D03*
%TD*%
D19*
%TO.C,J9*%
X65200430Y-150466355D03*
X70200430Y-150466355D03*
X65200430Y-143466355D03*
X70200430Y-143466355D03*
%TD*%
D20*
%TO.C,J1*%
X44410000Y-97260000D03*
D21*
X41870000Y-94720000D03*
X41870000Y-99800000D03*
X46950000Y-94720000D03*
X46950000Y-99800000D03*
%TD*%
D19*
%TO.C,J6*%
X143320435Y-138266355D03*
X138320435Y-138266355D03*
X143320435Y-145266355D03*
X138320435Y-145266355D03*
%TD*%
%TO.C,J8*%
X65200430Y-135466355D03*
X70200430Y-135466355D03*
X65200430Y-128466355D03*
X70200430Y-128466355D03*
%TD*%
D14*
%TO.C,J12*%
X136787500Y-118678400D03*
D15*
X138787500Y-118678400D03*
X136787500Y-116678400D03*
X138787500Y-116678400D03*
X136787500Y-114678400D03*
X138787500Y-114678400D03*
X136787500Y-112678400D03*
X138787500Y-112678400D03*
X136787500Y-110678400D03*
X138787500Y-110678400D03*
X136787500Y-108678400D03*
X138787500Y-108678400D03*
X136787500Y-106678400D03*
X138787500Y-106678400D03*
X136787500Y-104678400D03*
X138787500Y-104678400D03*
X136787500Y-102678400D03*
X138787500Y-102678400D03*
X136787500Y-100678400D03*
X138787500Y-100678400D03*
%TD*%
D22*
%TO.C,U4*%
X100200000Y-177700000D03*
D23*
X107400000Y-177700000D03*
%TD*%
D19*
%TO.C,J7*%
X143320435Y-153266355D03*
X138320435Y-153266355D03*
X143320435Y-160266355D03*
X138320435Y-160266355D03*
%TD*%
%TO.C,J10*%
X65200430Y-165466355D03*
X70200430Y-165466355D03*
X65200430Y-158466355D03*
X70200430Y-158466355D03*
%TD*%
%TO.C,J5*%
X143320435Y-123266355D03*
X138320435Y-123266355D03*
X143320435Y-130266355D03*
X138320435Y-130266355D03*
%TD*%
D10*
%TO.C,J13*%
X99385000Y-74060000D03*
X87955000Y-74060000D03*
D11*
X98110000Y-80420000D03*
D12*
X96850000Y-82960000D03*
X95570000Y-80420000D03*
X94310000Y-82960000D03*
X93030000Y-80420000D03*
X91770000Y-82960000D03*
X90490000Y-80420000D03*
X89230000Y-82960000D03*
X100295000Y-69160000D03*
X97755000Y-69160000D03*
X89585000Y-69160000D03*
X87045000Y-69160000D03*
D13*
X101415000Y-77110000D03*
X85925000Y-77110000D03*
%TD*%
D24*
%TO.C,C10*%
X132885000Y-89250000D03*
X133525000Y-89250000D03*
%TD*%
D25*
%TO.C,C123*%
X92940000Y-78450000D03*
X91390000Y-78450000D03*
%TD*%
D24*
%TO.C,C5*%
X159525000Y-82150000D03*
X160165000Y-82150000D03*
%TD*%
D26*
%TO.C,U9*%
X162095000Y-89362500D03*
X163365000Y-89362500D03*
X164635000Y-89362500D03*
X165905000Y-89362500D03*
X165905000Y-96537500D03*
X164635000Y-96537500D03*
X163365000Y-96537500D03*
X162095000Y-96537500D03*
%TD*%
D27*
%TO.C,C4*%
X160165000Y-80400000D03*
X159525000Y-80400000D03*
%TD*%
D24*
%TO.C,C18*%
X174450000Y-92580000D03*
X175090000Y-92580000D03*
%TD*%
D28*
%TO.C,R9*%
X129450000Y-80840000D03*
X129450000Y-81860000D03*
%TD*%
D29*
%TO.C,R79*%
X66175000Y-102580000D03*
X67825000Y-102580000D03*
%TD*%
D30*
%TO.C,R99*%
X97740000Y-67360000D03*
X97740000Y-66340000D03*
%TD*%
D31*
%TO.C,R57*%
X47100000Y-164300000D03*
X53025000Y-164300000D03*
%TD*%
D32*
%TO.C,C28*%
X96237500Y-161375000D03*
D33*
X96237500Y-158875000D03*
%TD*%
D34*
%TO.C,R86*%
X142512500Y-118678400D03*
X140862500Y-118678400D03*
%TD*%
D27*
%TO.C,C3*%
X160165000Y-78650000D03*
X159525000Y-78650000D03*
%TD*%
D29*
%TO.C,R80*%
X66175000Y-110580000D03*
X67825000Y-110580000D03*
%TD*%
D24*
%TO.C,C26*%
X183810000Y-89600000D03*
X184450000Y-89600000D03*
%TD*%
D34*
%TO.C,R91*%
X142512500Y-102628400D03*
X140862500Y-102628400D03*
%TD*%
D35*
%TO.C,C120*%
X98690000Y-87950000D03*
X99650000Y-87950000D03*
%TD*%
D36*
%TO.C,FB4*%
X91650000Y-88815000D03*
X91650000Y-89785000D03*
%TD*%
D37*
%TO.C,C24*%
X187980000Y-87880000D03*
X187980000Y-88520000D03*
%TD*%
D38*
%TO.C,C15*%
X176980000Y-95070000D03*
X176980000Y-96030000D03*
%TD*%
D35*
%TO.C,C20*%
X176950000Y-93130000D03*
X177910000Y-93130000D03*
%TD*%
D29*
%TO.C,R81*%
X66175000Y-112580000D03*
X67825000Y-112580000D03*
%TD*%
D24*
%TO.C,C12*%
X132885000Y-87500000D03*
X133525000Y-87500000D03*
%TD*%
D35*
%TO.C,C11*%
X149680000Y-103810000D03*
X150640000Y-103810000D03*
%TD*%
D38*
%TO.C,C114*%
X92650000Y-88820000D03*
X92650000Y-89780000D03*
%TD*%
%TO.C,C19*%
X178950000Y-95070000D03*
X178950000Y-96030000D03*
%TD*%
D25*
%TO.C,C133*%
X112215000Y-77950000D03*
X110665000Y-77950000D03*
%TD*%
D39*
%TO.C,C116*%
X94460589Y-91739411D03*
X95139411Y-91060589D03*
%TD*%
D27*
%TO.C,C27*%
X184450000Y-91350000D03*
X183810000Y-91350000D03*
%TD*%
D40*
%TO.C,C115*%
X92622500Y-87846250D03*
X91662500Y-87846250D03*
%TD*%
D41*
%TO.C,C22*%
X130440000Y-81840000D03*
X130440000Y-80880000D03*
%TD*%
D30*
%TO.C,R96*%
X87040000Y-67360000D03*
X87040000Y-66340000D03*
%TD*%
D31*
%TO.C,R39*%
X47137500Y-159700000D03*
X53062500Y-159700000D03*
%TD*%
D42*
%TO.C,C118*%
X94340000Y-78450000D03*
X95890000Y-78450000D03*
%TD*%
D27*
%TO.C,C2*%
X160165000Y-76900000D03*
X159525000Y-76900000D03*
%TD*%
D29*
%TO.C,R82*%
X66175000Y-114630000D03*
X67825000Y-114630000D03*
%TD*%
D27*
%TO.C,C8*%
X117990000Y-113460000D03*
X117350000Y-113460000D03*
%TD*%
D43*
%TO.C,FB1*%
X149695000Y-99860000D03*
X150665000Y-99860000D03*
%TD*%
D44*
%TO.C,D3*%
X106450000Y-171350000D03*
X102150000Y-171350000D03*
%TD*%
D34*
%TO.C,R87*%
X142512500Y-116678400D03*
X140862500Y-116678400D03*
%TD*%
D24*
%TO.C,C16*%
X174450000Y-90830000D03*
X175090000Y-90830000D03*
%TD*%
D41*
%TO.C,C117*%
X90650000Y-89780000D03*
X90650000Y-88820000D03*
%TD*%
D34*
%TO.C,R89*%
X142512500Y-106678400D03*
X140862500Y-106678400D03*
%TD*%
D35*
%TO.C,C119*%
X98690000Y-88915000D03*
X99650000Y-88915000D03*
%TD*%
D45*
%TO.C,R101*%
X93540000Y-73337500D03*
X93540000Y-75162500D03*
%TD*%
D30*
%TO.C,R98*%
X100340000Y-67360000D03*
X100340000Y-66340000D03*
%TD*%
D24*
%TO.C,C21*%
X174450000Y-94330000D03*
X175090000Y-94330000D03*
%TD*%
D42*
%TO.C,C128*%
X113665000Y-77950000D03*
X115215000Y-77950000D03*
%TD*%
D40*
%TO.C,C13*%
X177910000Y-89190000D03*
X176950000Y-89190000D03*
%TD*%
D29*
%TO.C,R77*%
X66175000Y-98580000D03*
X67825000Y-98580000D03*
%TD*%
D34*
%TO.C,R88*%
X142512500Y-114678400D03*
X140862500Y-114678400D03*
%TD*%
D45*
%TO.C,R112*%
X113040000Y-73837500D03*
X113040000Y-75662500D03*
%TD*%
D24*
%TO.C,C1*%
X159525000Y-75150000D03*
X160165000Y-75150000D03*
%TD*%
D35*
%TO.C,C17*%
X176950000Y-91160000D03*
X177910000Y-91160000D03*
%TD*%
%TO.C,C9*%
X117400000Y-111600000D03*
X118360000Y-111600000D03*
%TD*%
D24*
%TO.C,C14*%
X174450000Y-89080000D03*
X175090000Y-89080000D03*
%TD*%
D46*
%TO.C,C23*%
X186230000Y-88520000D03*
X186230000Y-87880000D03*
%TD*%
D35*
%TO.C,C6*%
X162025000Y-75260000D03*
X162985000Y-75260000D03*
%TD*%
D29*
%TO.C,R78*%
X66175000Y-100580000D03*
X67825000Y-100580000D03*
%TD*%
D34*
%TO.C,R90*%
X142512500Y-104678400D03*
X140862500Y-104678400D03*
%TD*%
D30*
%TO.C,R97*%
X89640000Y-67360000D03*
X89640000Y-66340000D03*
%TD*%
D27*
%TO.C,C25*%
X184450000Y-87850000D03*
X183810000Y-87850000D03*
%TD*%
D35*
%TO.C,C7*%
X162025000Y-77230000D03*
X162985000Y-77230000D03*
%TD*%
M02*
